<svg width="40" height="40" viewBox="0 0 40 40" fill="none" xmlns="http://www.w3.org/2000/svg">
<rect width="40" height="40" rx="20" fill="#404040"/>
<g clip-path="url(#clip0_1830_36156)">
<path d="M19.9997 18.586L24.2427 14.343C24.6332 13.9525 25.2663 13.9525 25.6567 14.343C26.0472 14.7335 26.0472 15.3665 25.6567 15.757L21.4137 20L25.6567 24.243C26.0472 24.6335 26.0472 25.2665 25.6567 25.657C25.2663 26.0475 24.6332 26.0475 24.2427 25.657L19.9997 21.414L15.7567 25.657C15.3663 26.0475 14.7332 26.0475 14.3427 25.657C13.9523 25.2665 13.9523 24.6335 14.3427 24.243L18.5857 20L14.3427 15.757C13.9523 15.3665 13.9523 14.7335 14.3427 14.343C14.7332 13.9525 15.3663 13.9525 15.7567 14.343L19.9997 18.586Z" fill="white"/>
</g>
<defs>
<clipPath id="clip0_1830_36156">
<rect width="24" height="24" fill="white" transform="translate(8 8)"/>
</clipPath>
</defs>
</svg>
