<svg width="25" height="24" viewBox="0 0 25 24" fill="none" xmlns="http://www.w3.org/2000/svg">
<rect opacity="0.1" x="0.927734" width="24" height="24" rx="2" fill="#FFB58F"/>
<path d="M12.2197 4H13.1918V6.00003H12.2197V4Z" fill="#FF844A"/>
<path d="M4.92773 12.2617H6.8719V13.2617H4.92773V12.2617Z" fill="#FF844A"/>
<path d="M18.9834 12.2617H20.9276V13.2617H18.9834L18.9834 12.2617Z" fill="#FF844A"/>
<path d="M16.1406 7.25586L17.5151 5.84184L18.2024 6.54884L16.8279 7.96286L16.1406 7.25586Z" fill="#FF844A"/>
<path d="M6.17383 6.90332L6.86108 6.19632L8.2356 7.61034L7.54835 8.31734L6.17383 6.90332Z" fill="#FF844A"/>
<path fill-rule="evenodd" clip-rule="evenodd" d="M7.8457 13.0001C7.8457 10.2432 10.0262 8 12.7061 8C15.386 8 17.5665 10.2432 17.5665 13.0001C17.5665 14.5797 16.8446 16.0548 15.6223 16.9987V19.5002C15.6223 19.7765 15.4049 20.0002 15.1363 20.0002H10.2759C10.0072 20.0002 9.78986 19.7765 9.78986 19.5002V16.9987C8.56763 16.0548 7.8457 14.5797 7.8457 13.0001ZM14.6508 16.7401C14.6508 16.5731 14.7315 16.4173 14.8663 16.3245C15.949 15.5789 16.595 14.3357 16.595 12.9998C16.595 10.7942 14.8507 8.9997 12.7067 8.9997C10.5627 8.9997 8.81836 10.7942 8.81836 12.9998C8.81836 14.3357 9.46434 15.5789 10.547 16.3245C10.6818 16.4173 10.7625 16.5731 10.7625 16.7401V18.9998H14.6508V16.7401Z" fill="#FF4C00"/>
</svg>
