<svg width="156" height="38" viewBox="0 0 156 38" fill="none" xmlns="http://www.w3.org/2000/svg">
<path d="M41.8558 37.1714H28.8889L21.0176 23.3639H33.9776L41.8558 37.1714Z" fill="#961C4E"/>
<path d="M20.9549 0.827637L27.4662 12.0731L13.1114 37.1716H0.175781L20.9549 0.827637Z" fill="#961C4E"/>
<path d="M50.8824 20.5261H44.451L42.8928 23.3891H40.458L47.7345 10.1871L54.8754 23.3891H52.4058L50.8824 20.5261ZM45.4041 18.7236H49.9676L47.7345 14.3661L45.4041 18.7236ZM59.9537 16.7251L55.6963 10.6561H58.305L61.2754 15.0486L64.2632 10.6561H66.8441L62.5276 16.7426L67.1989 23.3926H64.5867L61.2267 18.4926L57.825 23.3926H55.1954L59.9537 16.7251ZM69.1919 10.6561H71.4632V23.3891H69.1919V10.6561ZM80.8963 13.5541C80.6586 13.1468 80.3192 12.809 79.9119 12.5741C79.4692 12.3501 78.9776 12.2418 78.4824 12.2591C77.9527 12.2208 77.4273 12.3775 77.0041 12.7001C76.8421 12.8341 76.7123 13.0031 76.6243 13.1946C76.5364 13.3862 76.4926 13.5952 76.4963 13.8061C76.4963 14.5528 77.0389 15.0813 78.1241 15.3916L79.6476 15.8501C80.6698 16.093 81.6067 16.6122 82.3571 17.3516C82.9292 17.9762 83.2406 18.7983 83.2267 19.6476C83.231 20.1916 83.1183 20.7301 82.8963 21.2261C82.6735 21.71 82.3496 22.1398 81.9467 22.4861C81.5047 22.857 80.9974 23.1407 80.451 23.3226C79.8236 23.5349 79.1651 23.639 78.5032 23.6306C77.2874 23.7008 76.0833 23.3582 75.0841 22.6576C74.6595 22.3165 74.3075 21.8927 74.0493 21.4117C73.7912 20.9306 73.632 20.402 73.5815 19.8576L75.8006 19.4446C75.8708 20.1304 76.186 20.7671 76.6876 21.2366C77.2023 21.647 77.8473 21.8559 78.5032 21.8246C79.1492 21.8671 79.7875 21.6635 80.2911 21.2541C80.4968 21.0714 80.6599 20.8452 80.7687 20.5917C80.8775 20.3382 80.9294 20.0636 80.9206 19.7876C80.9273 19.5024 80.8715 19.2192 80.7571 18.9581C80.6484 18.7278 80.4932 18.5228 80.3015 18.3561C80.0934 18.1742 79.8588 18.0255 79.6058 17.9151C79.3225 17.7896 79.0322 17.681 78.7363 17.5896L77.2684 17.1591C76.3882 16.9457 75.5832 16.4928 74.9415 15.8501C74.4429 15.2974 74.174 14.5734 74.1902 13.8271C74.1849 13.359 74.2881 12.8961 74.4916 12.4751C74.695 12.054 74.9932 11.6865 75.3624 11.4016C75.7659 11.0912 76.2203 10.8543 76.705 10.7016C77.2683 10.528 77.8549 10.443 78.4441 10.4496C79.3746 10.4104 80.2991 10.6167 81.1258 11.0481C81.7932 11.4233 82.3344 11.9899 82.6806 12.6756L80.8963 13.5541Z" fill="#961C4E"/>
<path d="M91.8496 10.6561H96.4305C97.3965 10.6448 98.357 10.8036 99.2687 11.1251C100.073 11.4089 100.812 11.8529 101.443 12.4306C102.042 12.9902 102.516 13.6714 102.834 14.4291C103.167 15.2364 103.335 16.103 103.328 16.9771C103.336 17.8637 103.168 18.743 102.834 19.5636C102.516 20.3313 102.042 21.0239 101.443 21.5971C100.82 22.1847 100.084 22.6364 99.2792 22.9236C98.3641 23.2457 97.3998 23.4032 96.4305 23.3891H91.8496V10.6561ZM96.3713 21.4816C97.035 21.4913 97.6953 21.3847 98.3227 21.1666C98.865 20.974 99.3597 20.666 99.7731 20.2636C100.174 19.8624 100.483 19.3772 100.677 18.8426C100.892 18.2447 100.998 17.6128 100.99 16.9771C100.998 16.3539 100.892 15.7346 100.677 15.1501C100.48 14.6231 100.172 14.1454 99.7731 13.7501C99.3587 13.354 98.8638 13.0531 98.3227 12.8681C97.694 12.656 97.0343 12.5519 96.3713 12.5601H94.1314V21.4781L96.3713 21.4816Z" fill="#961C4E"/>
<path d="M105.543 10.6561H107.818V23.3891H105.543V10.6561Z" fill="#961C4E"/>
<path d="M110.69 10.656H114.551C115.861 10.5667 117.16 10.9379 118.228 11.706C118.645 12.0517 118.976 12.4905 119.195 12.9874C119.414 13.4844 119.515 14.0259 119.49 14.569C119.524 15.4429 119.239 16.299 118.69 16.977C118.065 17.6631 117.235 18.1252 116.325 18.293L120.694 23.389H117.911L113.943 18.4715H112.962V23.389H110.69V10.656ZM112.965 12.476V16.655H114.517C115.225 16.7045 115.931 16.5176 116.523 16.123C116.728 15.9362 116.894 15.7104 117.011 15.4586C117.128 15.2069 117.194 14.9343 117.206 14.6566C117.218 14.3788 117.174 14.1016 117.079 13.8408C116.983 13.58 116.837 13.341 116.649 13.1375C116.61 13.092 116.565 13.05 116.523 13.008C115.931 12.6134 115.225 12.4264 114.517 12.476H112.965Z" fill="#961C4E"/>
<path d="M122.316 10.6561H130.299V12.5671H124.605V15.8256H129.798V17.7366H124.605V21.4816H130.334V23.3926H122.334L122.316 10.6561Z" fill="#961C4E"/>
<path d="M144.454 20.2917C144.003 21.3099 143.253 22.1648 142.304 22.7417C141.216 23.3837 139.969 23.7028 138.708 23.6622C137.794 23.6715 136.885 23.5199 136.023 23.2142C135.222 22.9346 134.491 22.4852 133.878 21.8964C133.266 21.3077 132.786 20.5933 132.471 19.8017C132.117 18.912 131.943 17.96 131.96 17.0017C131.953 16.0969 132.12 15.1993 132.454 14.3592C132.77 13.5709 133.244 12.8561 133.845 12.2592C134.46 11.6504 135.191 11.1741 135.995 10.8592C136.872 10.5124 137.808 10.3413 138.75 10.3552C139.905 10.314 141.052 10.5744 142.078 11.1112C142.927 11.5688 143.638 12.2468 144.137 13.0747L142.471 14.1702C142.056 13.5636 141.493 13.0743 140.837 12.7492C140.183 12.4452 139.47 12.291 138.75 12.2977C138.118 12.2873 137.491 12.4064 136.906 12.6477C136.379 12.8772 135.905 13.2145 135.515 13.6382C135.111 14.0743 134.8 14.5888 134.6 15.1502C134.386 15.7471 134.279 16.3776 134.284 17.0122C134.28 17.6802 134.398 18.3433 134.631 18.9687C134.833 19.5225 135.147 20.028 135.553 20.4527C135.946 20.8636 136.42 21.1868 136.944 21.4012C137.511 21.6327 138.117 21.7516 138.729 21.7512C139.568 21.7778 140.396 21.5524 141.108 21.1037C141.754 20.6684 142.277 20.0729 142.628 19.3747L144.454 20.2917Z" fill="#961C4E"/>
<path d="M145.491 10.6561H155.818V12.5671H151.79V23.3891H149.519V12.5636H145.491V10.6561Z" fill="#961C4E"/>
</svg>
