<svg width="1440" height="64" viewBox="0 0 1440 64" fill="none" xmlns="http://www.w3.org/2000/svg">
<path fill-rule="evenodd" clip-rule="evenodd" d="M0 1.01921e-06V64H222.432C229.978 64.003 232.81 57.6039 232.81 57.6039C232.81 57.6039 242.813 40.9222 247.57 32.6185C252.333 24.3148 259.863 25.1959 259.863 25.1959H290.909V0L0 1.01921e-06Z" fill="#97144D"/>
<path d="M72.7051 49.9998H60.0416L52.3545 36.323H65.0112L72.7051 49.9998Z" fill="white"/>
<path d="M52.2929 14L58.6518 25.1391L44.633 50H32L52.2929 14Z" fill="white"/>
<path d="M81.5203 33.512H75.2394L73.7177 36.3479H71.3398L78.4461 23.2709L85.4199 36.3479H83.0081L81.5203 33.512ZM76.1702 31.7266H80.6269L78.4461 27.4103L76.1702 31.7266ZM90.3793 29.747L86.2215 23.7354H88.7692L91.6701 28.0864L94.588 23.7354H97.1085L92.893 29.7643L97.455 36.3514H94.9039L91.6226 31.4978L88.3004 36.3514H85.7324L90.3793 29.747ZM99.4014 23.7354H101.62V36.3479H99.4014V23.7354ZM110.832 26.606C110.6 26.2025 110.268 25.8679 109.871 25.6353C109.438 25.4134 108.958 25.3061 108.474 25.3233C107.957 25.2852 107.444 25.4405 107.031 25.7601C106.873 25.8928 106.746 26.0602 106.66 26.2499C106.574 26.4396 106.531 26.6467 106.535 26.8556C106.535 27.5952 107.065 28.1187 108.125 28.4261L109.612 28.8803C110.611 29.1208 111.526 29.6351 112.259 30.3676C112.817 30.9862 113.121 31.8006 113.108 32.6418C113.112 33.1807 113.002 33.7141 112.785 34.2054C112.568 34.6847 112.251 35.1104 111.858 35.4535C111.426 35.8208 110.931 36.1019 110.397 36.282C109.784 36.4923 109.141 36.5954 108.495 36.5871C107.307 36.6566 106.132 36.3172 105.156 35.6233C104.741 35.2855 104.397 34.8657 104.145 34.3892C103.893 33.9126 103.738 33.3891 103.688 32.8498L105.855 32.4407C105.924 33.12 106.232 33.7507 106.722 34.2158C107.224 34.6223 107.854 34.8292 108.495 34.7982C109.126 34.8403 109.749 34.6386 110.241 34.2331C110.442 34.0521 110.601 33.828 110.707 33.5769C110.814 33.3258 110.864 33.0539 110.856 32.7805C110.862 32.498 110.808 32.2174 110.696 31.9589C110.59 31.7307 110.438 31.5277 110.251 31.3626C110.048 31.1823 109.819 31.035 109.572 30.9257C109.295 30.8014 109.011 30.6938 108.722 30.6033L107.289 30.1769C106.429 29.9654 105.643 29.5169 105.016 28.8803C104.53 28.3328 104.267 27.6156 104.283 26.8764C104.278 26.4127 104.378 25.9542 104.577 25.5371C104.776 25.1201 105.067 24.7561 105.427 24.4739C105.821 24.1664 106.265 23.9318 106.739 23.7805C107.289 23.6085 107.862 23.5243 108.437 23.5309C109.346 23.492 110.249 23.6964 111.056 24.1237C111.708 24.4953 112.236 25.0565 112.574 25.7358L110.832 26.606Z" fill="white"/>
<path d="M121.529 23.7354H126.003C126.946 23.7243 127.884 23.8815 128.775 24.2C129.56 24.4812 130.282 24.921 130.898 25.4931C131.483 26.0474 131.946 26.7222 132.257 27.4727C132.582 28.2724 132.746 29.1308 132.739 29.9966C132.747 30.8748 132.583 31.7458 132.257 32.5586C131.946 33.3191 131.483 34.0051 130.898 34.5729C130.29 35.155 129.571 35.6023 128.785 35.8868C127.891 36.2058 126.95 36.3619 126.003 36.3479H121.529V23.7354ZM125.945 34.4584C126.593 34.468 127.238 34.3625 127.851 34.1464C128.381 33.9557 128.864 33.6506 129.267 33.252C129.659 32.8546 129.961 32.374 130.151 31.8444C130.36 31.2522 130.464 30.6263 130.456 29.9966C130.464 29.3793 130.36 28.7659 130.151 28.1869C129.958 27.6649 129.657 27.1917 129.267 26.8001C128.863 26.4078 128.379 26.1097 127.851 25.9265C127.237 25.7165 126.593 25.6133 125.945 25.6214H123.758V34.455L125.945 34.4584Z" fill="white"/>
<path d="M134.901 23.7355H137.123V36.348H134.901V23.7355Z" fill="white"/>
<path d="M139.929 23.7353H143.699C144.978 23.6469 146.247 24.0145 147.29 24.7754C147.697 25.1179 148.02 25.5525 148.234 26.0447C148.448 26.537 148.547 27.0733 148.523 27.6113C148.555 28.4769 148.278 29.3249 147.742 29.9965C147.131 30.6761 146.32 31.1338 145.432 31.3L149.698 36.3478H146.981L143.105 31.4769H142.147V36.3478H139.929V23.7353ZM142.15 25.5381V29.6776H143.665C144.358 29.7266 145.046 29.5414 145.625 29.1506C145.825 28.9655 145.987 28.7419 146.101 28.4925C146.216 28.2432 146.28 27.9731 146.292 27.698C146.303 27.423 146.261 27.1483 146.167 26.89C146.074 26.6317 145.931 26.3949 145.748 26.1933C145.71 26.1483 145.666 26.1067 145.625 26.0651C145.046 25.6742 144.358 25.489 143.665 25.5381H142.15Z" fill="white"/>
<path d="M151.282 23.7355H159.078V25.6284H153.517V28.856H158.589V30.749H153.517V34.4585H159.112V36.3514H151.299L151.282 23.7355Z" fill="white"/>
<path d="M172.902 33.2799C172.461 34.2885 171.729 35.1353 170.803 35.7067C169.74 36.3426 168.522 36.6587 167.29 36.6185C166.397 36.6277 165.51 36.4775 164.668 36.1747C163.886 35.8977 163.172 35.4526 162.574 34.8694C161.975 34.2862 161.507 33.5786 161.2 32.7945C160.854 31.9132 160.684 30.9702 160.7 30.021C160.693 29.1248 160.857 28.2357 161.183 27.4035C161.492 26.6227 161.954 25.9147 162.541 25.3234C163.142 24.7204 163.856 24.2486 164.641 23.9366C165.497 23.5932 166.411 23.4236 167.331 23.4374C168.46 23.3966 169.58 23.6546 170.582 24.1863C171.41 24.6396 172.105 25.3112 172.593 26.1312L170.966 27.2163C170.56 26.6155 170.011 26.1308 169.369 25.8088C168.731 25.5077 168.034 25.3549 167.331 25.3615C166.714 25.3513 166.102 25.4692 165.531 25.7082C165.016 25.9356 164.553 26.2697 164.172 26.6893C163.777 27.1213 163.473 27.6309 163.279 28.187C163.07 28.7783 162.965 29.4028 162.969 30.0314C162.966 30.6931 163.081 31.3499 163.309 31.9694C163.506 32.518 163.812 33.0187 164.209 33.4393C164.593 33.8464 165.056 34.1665 165.568 34.3789C166.121 34.6082 166.713 34.726 167.311 34.7256C168.13 34.7519 168.939 34.5286 169.634 34.0842C170.265 33.653 170.776 33.0632 171.119 32.3715L172.902 33.2799Z" fill="white"/>
<path d="M173.915 23.7355H184V25.6284H180.067V36.348H177.849V25.6249H173.915V23.7355Z" fill="white"/>
<path d="M290 0V25.2126H1440V8.31942e-05L290 0Z" fill="#97144D"/>
</svg>
