<svg width="318" height="550" viewBox="0 0 318 550" fill="none" xmlns="http://www.w3.org/2000/svg">
<g clip-path="url(#clip0_1107_21016)">
<mask id="path-1-inside-1_1107_21016" fill="white">
<path d="M0 7.99999C0 3.58171 3.58172 0 8 0H318V550H7.99999C3.58172 550 0 546.418 0 542V7.99999Z"/>
</mask>
<path d="M0 7.99999C0 3.58171 3.58172 0 8 0H318V550H7.99999C3.58172 550 0 546.418 0 542V7.99999Z" fill="white"/>
<mask id="mask0_1107_21016" style="mask-type:alpha" maskUnits="userSpaceOnUse" x="-2" y="130" width="322" height="420">
<rect x="-2" y="130" width="322" height="420" fill="white"/>
</mask>
<g mask="url(#mask0_1107_21016)">
<path d="M284.792 346.796L204.05 343.899L218.344 434.492L278.225 440.094L284.792 346.796Z" fill="white"/>
<path d="M268.649 445.073C276.895 445.073 283.58 438.411 283.58 430.194C283.58 421.976 276.895 415.314 268.649 415.314C260.403 415.314 253.719 421.976 253.719 430.194C253.719 438.411 260.403 445.073 268.649 445.073Z" fill="#FCF5E8"/>
<path d="M241.455 447.246C254.669 447.246 265.381 436.571 265.381 423.402C265.381 410.233 254.669 399.557 241.455 399.557C228.241 399.557 217.529 410.233 217.529 423.402C217.529 436.571 228.241 447.246 241.455 447.246Z" fill="#FFF6E1"/>
<path d="M28.1969 441.599C41.3593 441.599 52.0296 430.964 52.0296 417.845C52.0296 404.727 41.3593 394.092 28.1969 394.092C15.0345 394.092 4.36426 404.727 4.36426 417.845C4.36426 430.964 15.0345 441.599 28.1969 441.599Z" fill="#FFF6E1"/>
<path d="M59.2464 441.597C67.4922 441.597 74.1769 434.936 74.1769 426.718C74.1769 418.5 67.4922 411.839 59.2464 411.839C51.0005 411.839 44.3158 418.5 44.3158 426.718C44.3158 434.936 51.0005 441.597 59.2464 441.597Z" fill="#FFF6E1"/>
<path d="M268.64 445.073C276.886 445.073 283.571 438.411 283.571 430.193C283.571 421.976 276.886 415.314 268.64 415.314C260.395 415.314 253.71 421.976 253.71 430.193C253.71 438.411 260.395 445.073 268.64 445.073Z" fill="#FFF6E1"/>
<path d="M241.447 447.246C254.661 447.246 265.373 436.57 265.373 423.402C265.373 410.233 254.661 399.557 241.447 399.557C228.233 399.557 217.521 410.233 217.521 423.402C217.521 436.57 228.233 447.246 241.447 447.246Z" fill="#FFF6E1"/>
<path d="M-19 481V420L318 432.424V477.056L-19 481Z" fill="white"/>
<path d="M53.9436 468.912V549.929H268.141V448.955L53.9436 468.912Z" fill="white"/>
<path d="M152.446 496.187L0 520.976V557H161.421H317.853L318 539.5V509.789L221.585 489L152.446 496.187Z" fill="#ED88B0"/>
<path d="M116.981 335.038C142.904 335.038 163.919 313.438 163.919 286.792C163.919 260.146 142.904 238.545 116.981 238.545C91.0572 238.545 70.042 260.146 70.042 286.792C70.042 313.438 91.0572 335.038 116.981 335.038Z" fill="#FFF6E1"/>
<path d="M85.4901 327.813C99.5701 327.813 110.984 316.038 110.984 301.513C110.984 286.987 99.5701 275.212 85.4901 275.212C71.4102 275.212 59.9961 286.987 59.9961 301.513C59.9961 316.038 71.4102 327.813 85.4901 327.813Z" fill="#FFE2AA"/>
<path d="M262.046 322.565C275.487 322.565 286.383 311.705 286.383 298.31C286.383 284.914 275.487 274.054 262.046 274.054C248.605 274.054 237.709 284.914 237.709 298.31C237.709 311.705 248.605 322.565 262.046 322.565Z" fill="#FCF5E8"/>
<path d="M224.064 320.119C236.389 320.119 246.387 310.156 246.387 297.872C246.387 285.587 236.389 275.632 224.064 275.632H221.534V320.092L224.064 320.119Z" fill="white"/>
<path d="M220.307 320.115C232.632 320.115 242.623 310.157 242.623 297.873C242.623 285.59 232.632 275.632 220.307 275.632C207.982 275.632 197.991 285.59 197.991 297.873C197.991 310.157 207.982 320.115 220.307 320.115Z" fill="#FFBEAA"/>
<path d="M54.5791 368.133C68.8776 368.133 80.4687 356.58 80.4687 342.33C80.4687 328.08 68.8776 316.527 54.5791 316.527C40.2807 316.527 28.6896 328.08 28.6896 342.33C28.6896 356.58 40.2807 368.133 54.5791 368.133Z" fill="#FFF6E1"/>
<path d="M128.764 378.895C145.621 378.895 159.286 365.275 159.286 348.475C159.286 331.674 145.621 318.055 128.764 318.055C111.908 318.055 98.2432 331.674 98.2432 348.475C98.2432 365.275 111.908 378.895 128.764 378.895Z" fill="#FCF5E8"/>
<path d="M163.966 260.393C177.574 260.393 188.605 249.346 188.605 235.719C188.605 222.092 177.574 211.044 163.966 211.044C150.358 211.044 139.326 222.092 139.326 235.719C139.326 249.346 150.358 260.393 163.966 260.393Z" fill="white"/>
<path d="M254.77 249.308C268.85 249.308 280.264 237.932 280.264 223.899C280.264 209.865 268.85 198.489 254.77 198.489C240.69 198.489 229.276 209.865 229.276 223.899C229.276 237.932 240.69 249.308 254.77 249.308Z" fill="#FCF5E8"/>
<path d="M248.332 205.157C251.737 195.711 246.834 185.295 237.379 181.892C227.925 178.49 217.499 183.389 214.093 192.835L172.209 314.107C168.804 323.553 173.707 333.969 183.162 337.371C192.617 340.774 203.042 335.875 206.448 326.429L248.332 205.157Z" fill="#FFDFD4"/>
<path d="M245.4 511.791L165.496 512.977L151.652 281.389H208.613L245.4 511.791Z" fill="#FFDFD4"/>
<path d="M151.652 287.318L179.341 292.851L234.324 511.99L165.496 512.978L151.652 287.318Z" fill="#FFBEAA"/>
<path d="M123.478 188.747C124.284 185.289 118.77 181.052 111.163 179.283C103.556 177.515 96.7369 178.885 95.9315 182.343L87.5312 218.408C86.7258 221.866 92.2394 226.103 99.8462 227.871C107.453 229.64 114.272 228.27 115.078 224.812L123.478 188.747Z" fill="#F9F3E1"/>
<path d="M155.797 294.596C163.831 302.475 176.736 302.356 184.622 294.33C192.508 286.305 192.388 273.411 184.355 265.532L101.992 184.754C93.9588 176.875 81.0536 176.994 73.1678 185.019C65.2819 193.045 65.4016 205.938 73.4351 213.817L155.797 294.596Z" fill="#FFDFD4"/>
<path d="M73.4299 213.829L155.804 294.602C159.662 298.385 164.866 300.482 170.271 300.432C175.677 300.382 180.841 298.189 184.629 294.335C185.414 293.534 186.133 292.67 186.778 291.752L187.053 291.27C187.053 291.27 65.396 205.95 73.4299 213.829Z" fill="#FFBEAA"/>
<path d="M337.149 530.161C342.708 531.139 348.009 527.43 348.988 521.876C349.967 516.322 346.254 511.027 340.695 510.048L237.886 491.955C232.327 490.977 227.026 494.686 226.047 500.24C225.068 505.794 228.781 511.089 234.34 512.068L337.149 530.161Z" fill="#FFF6E1"/>
<path d="M165.513 513.005C175.502 511.555 182.423 502.289 180.971 492.309C179.519 482.33 170.244 475.416 160.255 476.866L39.8569 494.35C29.8678 495.801 22.947 505.067 24.3988 515.046C25.8507 525.025 35.1254 531.939 45.1145 530.489L165.513 513.005Z" fill="#FCE6B6"/>
<path opacity="0.5" d="M156.972 238.878L126.533 229.618L140.263 222.297L156.972 238.878Z" fill="white"/>
<path d="M154.056 352.464C162.696 354.674 171.494 349.468 173.706 340.836C175.918 332.204 170.706 323.415 162.066 321.205L-9.54422 277.311C-18.1847 275.101 -26.9822 280.307 -29.1941 288.938C-31.406 297.57 -26.1946 306.359 -17.5542 308.569L154.056 352.464Z" fill="#FFEDE7"/>
<path d="M228.023 495.774L226.018 500.501C225.622 503.134 226.272 505.817 227.829 507.979C229.385 510.14 231.725 511.608 234.35 512.07L268.738 518.115L229.164 494.527C228.749 494.91 228.368 495.327 228.023 495.774V495.774Z" fill="#FED3B2"/>
<path d="M53.9464 520.486L196.942 464.961L172.615 512.78L54.342 529.145L53.9464 520.486Z" fill="#FED3B2"/>
<path d="M88.5851 331.37L172.219 340.275L180.921 335.882L172.891 356.549L88.5851 331.37Z" fill="#FFDFD4"/>
<path d="M226.317 372.091C237.519 372.091 246.599 363.018 246.599 351.827C246.599 340.636 237.519 331.563 226.317 331.563C215.116 331.563 206.035 340.636 206.035 351.827C206.035 363.018 215.116 372.091 226.317 372.091Z" fill="#FFF6E1"/>
<path d="M208.304 228.41C227.052 228.41 242.251 213.225 242.251 194.494C242.251 175.762 227.052 160.578 208.304 160.578C189.555 160.578 174.357 175.762 174.357 194.494C174.357 213.225 189.555 228.41 208.304 228.41Z" fill="#FFF6E1"/>
<path d="M70.4447 182.008C67.8443 179.713 63.2044 180.717 60.0811 184.251C56.9577 187.784 56.5338 192.508 59.1341 194.803L108.214 238.109C110.814 240.403 115.454 239.399 118.578 235.866C121.701 232.333 122.125 227.608 119.525 225.314L70.4447 182.008Z" fill="#F9F3E1"/>
<path d="M207.389 348.051C215.026 348.051 221.216 336.411 221.216 322.053C221.216 307.695 215.026 296.055 207.389 296.055H203.252V348.051H207.389Z" fill="white"/>
<path d="M203.25 348.051C210.886 348.051 217.077 336.412 217.077 322.053C217.077 307.695 210.886 296.055 203.25 296.055C195.613 296.055 189.423 307.695 189.423 322.053C189.423 336.412 195.613 348.051 203.25 348.051Z" fill="#FFBEAA"/>
<path d="M214.906 321.925C214.906 326.549 214.277 331.232 212.73 335.601C212.109 337.406 211.276 339.131 210.248 340.739C209.418 342.067 208.354 343.236 207.109 344.187C206.058 344.989 204.804 345.483 203.488 345.614C202.173 345.698 200.863 345.385 199.73 344.715C198.434 343.974 197.356 342.891 196.461 341.707C195.373 340.233 194.48 338.625 193.804 336.923C192.095 332.758 191.32 328.229 191.15 323.737C190.972 319.023 191.451 314.231 192.819 309.708C193.38 307.801 194.147 305.961 195.108 304.22C195.885 302.781 196.887 301.475 198.074 300.349C199.067 299.4 200.285 298.72 201.615 298.373C202.876 298.088 204.195 298.2 205.39 298.695C208.333 299.881 210.299 302.833 211.615 305.588C213.511 309.552 214.427 313.976 214.759 318.335C214.85 319.528 214.895 320.724 214.894 321.921C214.897 321.948 214.91 321.972 214.931 321.99C214.951 322.008 214.977 322.017 215.003 322.017C215.03 322.017 215.056 322.008 215.076 321.99C215.097 321.972 215.11 321.948 215.113 321.921C215.113 317.213 214.465 312.437 212.855 307.992C212.219 306.185 211.37 304.461 210.325 302.855C209.481 301.539 208.41 300.384 207.16 299.444C206.084 298.638 204.805 298.143 203.466 298.016C202.146 297.934 200.831 298.241 199.684 298.899C198.369 299.634 197.271 300.715 196.358 301.9C195.265 303.353 194.365 304.94 193.68 306.623C191.9 310.858 191.097 315.497 190.921 320.06C190.735 324.85 191.223 329.742 192.635 334.325C193.208 336.241 193.989 338.088 194.965 339.834C195.768 341.299 196.806 342.623 198.037 343.754C199.05 344.695 200.285 345.363 201.627 345.697C202.893 345.973 204.214 345.862 205.416 345.378C208.401 344.193 210.41 341.264 211.757 338.482C213.691 334.491 214.631 330.035 214.977 325.638C215.074 324.403 215.119 323.166 215.121 321.929C215.116 321.905 215.103 321.883 215.083 321.867C215.064 321.851 215.04 321.842 215.015 321.842C214.99 321.842 214.966 321.849 214.946 321.865C214.926 321.88 214.912 321.901 214.906 321.925V321.925Z" fill="#FFE2AA"/>
<path d="M206.214 316.916C206.537 317.872 206.713 318.871 206.734 319.88L208.06 320.265C208.085 320.275 208.108 320.29 208.127 320.309C208.147 320.328 208.162 320.35 208.172 320.376C208.201 320.437 208.214 320.505 208.21 320.573L208.111 321.937C208.11 321.969 208.103 322.001 208.091 322.032C208.081 322.058 208.067 322.083 208.05 322.105C208.033 322.122 208.013 322.135 207.99 322.144C207.969 322.15 207.946 322.15 207.925 322.144L206.675 321.781C206.582 322.791 206.314 323.778 205.884 324.697C205.562 325.417 205.034 326.024 204.367 326.444L207.047 334.032C207.063 334.077 207.07 334.124 207.069 334.172C207.069 334.218 207.06 334.263 207.041 334.304C207.028 334.339 207.003 334.369 206.972 334.389C206.958 334.397 206.944 334.402 206.928 334.404C206.913 334.406 206.898 334.405 206.883 334.401L204.001 333.562C203.971 333.552 203.945 333.534 203.926 333.51C203.902 333.482 203.884 333.45 203.873 333.415L201.557 326.829C201.356 326.796 201.157 326.748 200.963 326.687L197.722 325.744C197.698 325.738 197.676 325.725 197.658 325.707C197.638 325.686 197.621 325.662 197.607 325.636C197.593 325.606 197.583 325.574 197.577 325.541C197.573 325.507 197.573 325.472 197.577 325.438L197.801 322.314C197.803 322.253 197.825 322.194 197.864 322.146C197.878 322.128 197.898 322.114 197.92 322.106C197.942 322.099 197.966 322.098 197.989 322.105L201.062 323C201.811 323.218 202.429 323.159 202.917 322.822C203.405 322.485 203.743 321.874 203.932 320.99L198.196 319.315C198.172 319.306 198.151 319.293 198.133 319.275C198.112 319.255 198.094 319.231 198.081 319.204C198.067 319.174 198.058 319.142 198.052 319.109C198.048 319.075 198.048 319.04 198.052 319.006L198.149 317.643C198.151 317.582 198.173 317.523 198.212 317.475C198.226 317.456 198.246 317.443 198.268 317.436C198.29 317.429 198.314 317.428 198.337 317.435L204.072 319.105C204.029 318.155 203.795 317.388 203.372 316.803C202.943 316.194 202.313 315.756 201.592 315.566L198.523 314.671C198.497 314.661 198.473 314.647 198.454 314.628C198.434 314.609 198.418 314.586 198.408 314.56C198.379 314.499 198.367 314.43 198.372 314.363L198.592 311.264C198.593 311.232 198.6 311.2 198.612 311.169C198.621 311.143 198.635 311.118 198.653 311.096C198.669 311.078 198.689 311.064 198.712 311.057C198.734 311.05 198.756 311.05 198.778 311.057L208.52 313.898C208.545 313.906 208.566 313.919 208.584 313.938C208.605 313.958 208.623 313.982 208.635 314.009C208.65 314.039 208.66 314.071 208.665 314.104C208.669 314.137 208.669 314.171 208.665 314.205L208.445 317.303C208.442 317.364 208.42 317.423 208.382 317.471C208.368 317.489 208.348 317.503 208.326 317.51C208.304 317.518 208.28 317.519 208.257 317.512L206.214 316.916Z" fill="#FFE2AA"/>
<path d="M167.771 349.428L167.76 349.416C167.746 349.438 167.75 349.44 167.771 349.428Z" fill="#1D2544"/>
<path d="M134.275 280.997C147.033 280.997 157.374 270.665 157.374 257.919C157.374 245.174 147.033 234.842 134.275 234.842C121.518 234.842 111.177 245.174 111.177 257.919C111.177 270.665 121.518 280.997 134.275 280.997Z" fill="white"/>
<path d="M131.356 280.997C144.113 280.997 154.455 270.665 154.455 257.919C154.455 245.174 144.113 234.842 131.356 234.842C118.599 234.842 108.257 245.174 108.257 257.919C108.257 270.665 118.599 280.997 131.356 280.997Z" fill="#FFBEAA"/>
<path d="M151.007 257.875C151.006 259.94 150.681 261.993 150.046 263.959C149.11 266.836 147.522 269.459 145.407 271.623C143.291 273.788 140.703 275.435 137.846 276.437C134.989 277.439 131.939 277.769 128.933 277.401C125.927 277.033 123.047 275.977 120.517 274.315C118.874 273.234 117.402 271.914 116.148 270.401C113.563 267.28 112.011 263.434 111.706 259.394C111.396 255.368 112.332 251.344 114.388 247.867C116.444 244.39 119.52 241.629 123.199 239.956C125.059 239.113 127.039 238.565 129.069 238.334C131.14 238.097 133.235 238.188 135.277 238.603C137.248 239.004 139.145 239.705 140.902 240.684C143.515 242.136 145.763 244.165 147.473 246.615C149.184 249.066 150.312 251.874 150.773 254.826C150.929 255.835 151.007 256.854 151.007 257.875C151.01 257.9 151.023 257.924 151.042 257.941C151.062 257.958 151.087 257.967 151.113 257.967C151.138 257.967 151.163 257.958 151.183 257.941C151.202 257.924 151.215 257.9 151.218 257.875C151.217 255.065 150.62 252.287 149.466 249.725C148.311 247.163 146.626 244.874 144.522 243.01C142.418 241.146 139.942 239.748 137.258 238.91C134.573 238.072 131.742 237.812 128.949 238.147C126.157 238.482 123.467 239.404 121.058 240.854C118.649 242.303 116.574 244.246 114.972 246.555C113.369 248.864 112.274 251.487 111.76 254.249C111.246 257.011 111.324 259.851 111.988 262.582C112.948 266.525 115.094 270.08 118.137 272.768C121.179 275.457 124.973 277.149 129.008 277.619C131.106 277.862 133.229 277.773 135.299 277.354C137.292 276.951 139.211 276.242 140.987 275.254C144.505 273.296 147.349 270.321 149.144 266.719C150.055 264.892 150.677 262.934 150.987 260.916C151.14 259.909 151.218 258.893 151.218 257.875C151.215 257.849 151.202 257.826 151.183 257.809C151.163 257.792 151.138 257.783 151.113 257.783C151.087 257.783 151.062 257.792 151.042 257.809C151.023 257.826 151.01 257.849 151.007 257.875V257.875Z" fill="#FFF4CC"/>
<path d="M135.975 254.103C136.456 254.961 136.727 255.922 136.766 256.905L138.805 257.268C138.873 257.282 138.935 257.319 138.979 257.373C139 257.399 139.016 257.429 139.025 257.46C139.035 257.492 139.038 257.526 139.034 257.559L138.886 258.845C138.882 258.878 138.872 258.909 138.854 258.936C138.837 258.963 138.814 258.986 138.788 259.004C138.761 259.022 138.731 259.035 138.7 259.041C138.667 259.048 138.632 259.048 138.599 259.041L136.683 258.697C136.516 259.702 136.098 260.649 135.468 261.45C134.863 262.206 134.057 262.777 133.142 263.098L137.252 270.259C137.275 270.299 137.288 270.345 137.288 270.391C137.286 270.436 137.271 270.479 137.244 270.516C137.217 270.552 137.18 270.579 137.138 270.595C137.094 270.612 137.045 270.617 136.999 270.606L132.581 269.816C132.539 269.809 132.5 269.793 132.466 269.769C132.432 269.745 132.404 269.714 132.383 269.678L128.823 263.457C128.625 263.443 128.33 263.398 127.915 263.323L122.945 262.436C122.911 262.429 122.879 262.416 122.85 262.398C122.819 262.381 122.792 262.358 122.771 262.331C122.749 262.305 122.734 262.275 122.725 262.242C122.715 262.211 122.712 262.178 122.715 262.145L123.059 259.197C123.063 259.165 123.073 259.134 123.089 259.106C123.106 259.079 123.128 259.055 123.154 259.037C123.213 258.999 123.284 258.985 123.352 258.999L128.067 259.851C129.216 260.057 130.164 260 130.913 259.681C131.287 259.531 131.622 259.297 131.892 258.997C132.161 258.697 132.358 258.34 132.468 257.952L123.661 256.371C123.626 256.366 123.594 256.354 123.564 256.336C123.504 256.301 123.459 256.244 123.439 256.178C123.43 256.147 123.427 256.115 123.429 256.083L123.58 254.794C123.583 254.763 123.594 254.732 123.61 254.705C123.626 254.678 123.648 254.654 123.675 254.636C123.703 254.617 123.735 254.603 123.769 254.596C123.803 254.59 123.838 254.59 123.872 254.597L132.68 256.178C132.659 255.761 132.553 255.353 132.369 254.979C132.184 254.605 131.924 254.273 131.606 254.004C130.961 253.435 130.054 253.046 128.886 252.836L124.169 251.985C124.1 251.971 124.038 251.934 123.993 251.88C123.972 251.854 123.956 251.825 123.946 251.793C123.937 251.761 123.934 251.727 123.938 251.694L124.274 248.772C124.277 248.739 124.288 248.708 124.306 248.681C124.322 248.653 124.344 248.629 124.371 248.611C124.398 248.594 124.428 248.581 124.46 248.574C124.493 248.568 124.527 248.568 124.561 248.574L139.497 251.255C139.531 251.261 139.564 251.273 139.594 251.291C139.623 251.309 139.649 251.332 139.671 251.358C139.692 251.385 139.708 251.415 139.719 251.447C139.725 251.479 139.725 251.512 139.719 251.544L139.398 254.466C139.394 254.498 139.384 254.529 139.367 254.557C139.35 254.584 139.328 254.608 139.301 254.626C139.243 254.665 139.172 254.678 139.104 254.664L135.975 254.103Z" fill="#FFE2AA"/>
<path d="M95.775 254.883C121.606 254.883 142.546 233.962 142.546 208.154C142.546 182.347 121.606 161.426 95.775 161.426C69.9439 161.426 49.0037 182.347 49.0037 208.154C49.0037 233.962 69.9439 254.883 95.775 254.883Z" fill="#FFF6E1"/>
<path d="M246.134 296.711C232.523 296.711 221.488 283.604 221.488 267.435C221.488 251.265 232.523 238.158 246.134 238.158H252.018V296.711H246.134Z" fill="#FFBEAA"/>
<path d="M252.017 296.713C265.627 296.713 276.66 283.605 276.66 267.436C276.66 251.267 265.627 238.16 252.017 238.16C238.406 238.16 227.373 251.267 227.373 267.436C227.373 283.605 238.406 296.713 252.017 296.713Z" fill="#FFE2AA"/>
<path d="M274.289 267.547C274.291 270.304 273.928 273.049 273.209 275.71C272.531 278.227 271.513 280.639 270.181 282.879C268.93 284.989 267.377 286.905 265.572 288.566C263.842 290.159 261.863 291.458 259.712 292.411C255.358 294.335 250.441 294.558 245.931 293.034C243.706 292.271 241.628 291.135 239.786 289.675C237.874 288.165 236.201 286.376 234.821 284.369C233.372 282.262 232.218 279.965 231.394 277.544C230.516 274.976 229.984 272.303 229.812 269.595C229.628 266.797 229.819 263.987 230.379 261.24C230.9 258.665 231.765 256.172 232.95 253.828C234.075 251.614 235.511 249.572 237.215 247.764C238.843 246.025 240.739 244.557 242.832 243.416C244.88 242.306 247.11 241.569 249.418 241.243C251.773 240.92 254.168 241.04 256.478 241.599C258.752 242.159 260.911 243.111 262.857 244.412C264.848 245.747 266.622 247.379 268.116 249.254C269.7 251.236 270.996 253.431 271.967 255.774C272.998 258.251 273.693 260.854 274.034 263.514C274.203 264.85 274.288 266.195 274.289 267.541C274.289 267.575 274.302 267.607 274.326 267.631C274.349 267.655 274.382 267.668 274.415 267.668C274.449 267.668 274.481 267.655 274.505 267.631C274.529 267.607 274.542 267.575 274.542 267.541C274.543 264.749 274.174 261.969 273.444 259.274C272.756 256.741 271.726 254.314 270.382 252.059C269.109 249.925 267.53 247.989 265.695 246.311C263.938 244.701 261.927 243.39 259.744 242.432C257.578 241.491 255.258 240.95 252.899 240.836C250.511 240.727 248.123 241.062 245.858 241.824C243.625 242.589 241.537 243.725 239.681 245.183C237.748 246.699 236.054 248.498 234.657 250.518C233.182 252.646 232.008 254.966 231.168 257.414C230.275 260.014 229.734 262.72 229.558 265.463C229.372 268.283 229.563 271.116 230.126 273.886C230.655 276.495 231.534 279.021 232.739 281.395C233.877 283.64 235.331 285.71 237.056 287.543C238.703 289.294 240.618 290.772 242.731 291.919C244.81 293.043 247.074 293.785 249.416 294.111C251.785 294.43 254.194 294.307 256.518 293.747C258.814 293.186 260.995 292.229 262.962 290.92C264.984 289.572 266.785 287.919 268.302 286.021C269.889 284.038 271.192 281.843 272.172 279.5C273.22 277.004 273.926 274.379 274.273 271.695C274.453 270.319 274.544 268.933 274.544 267.545C274.544 267.529 274.54 267.512 274.534 267.497C274.527 267.481 274.518 267.467 274.506 267.456C274.494 267.444 274.48 267.435 274.464 267.428C274.449 267.422 274.432 267.419 274.415 267.419C274.398 267.419 274.382 267.423 274.367 267.429C274.351 267.436 274.337 267.445 274.325 267.457C274.314 267.469 274.304 267.483 274.298 267.499C274.292 267.514 274.289 267.531 274.289 267.547Z" fill="#FFF6E1"/>
<path d="M259.958 262.245C260.535 263.269 260.862 264.414 260.911 265.588L263.336 266.023C263.414 266.041 263.484 266.085 263.534 266.148C263.559 266.178 263.577 266.214 263.589 266.252C263.6 266.29 263.603 266.33 263.599 266.369L263.421 267.904C263.417 267.942 263.404 267.979 263.383 268.011C263.365 268.044 263.338 268.073 263.306 268.094C263.274 268.116 263.238 268.132 263.199 268.139C263.159 268.147 263.119 268.147 263.079 268.139L260.79 267.728C260.594 268.929 260.096 270.059 259.343 271.015C258.624 271.92 257.664 272.605 256.574 272.991L261.479 281.535C261.506 281.583 261.52 281.638 261.52 281.693C261.519 281.747 261.501 281.799 261.469 281.843C261.436 281.886 261.392 281.919 261.342 281.938C261.289 281.956 261.232 281.961 261.176 281.952L255.903 281.005C255.855 280.996 255.808 280.977 255.768 280.949C255.727 280.92 255.693 280.884 255.668 280.841L251.429 273.417C251.201 273.4 250.84 273.347 250.346 273.257L244.412 272.198C244.371 272.19 244.332 272.175 244.295 272.155C244.261 272.133 244.23 272.106 244.204 272.074C244.179 272.042 244.159 272.006 244.147 271.967C244.137 271.93 244.134 271.891 244.137 271.852L244.547 268.333C244.549 268.294 244.561 268.255 244.581 268.221C244.601 268.187 244.628 268.158 244.661 268.136C244.694 268.113 244.731 268.098 244.77 268.09C244.809 268.082 244.85 268.082 244.889 268.09L250.514 269.098C251.885 269.346 253.017 269.28 253.91 268.9C254.356 268.72 254.755 268.441 255.077 268.083C255.399 267.726 255.635 267.3 255.767 266.837L245.255 264.95C245.214 264.943 245.175 264.929 245.14 264.907C245.104 264.887 245.073 264.86 245.047 264.828C245.022 264.796 245.003 264.76 244.992 264.721C244.98 264.684 244.976 264.645 244.98 264.606L245.16 263.069C245.162 263.03 245.174 262.991 245.193 262.957C245.213 262.923 245.24 262.894 245.272 262.871C245.339 262.826 245.421 262.809 245.5 262.824L256.01 264.707C255.986 264.21 255.86 263.723 255.64 263.277C255.419 262.83 255.109 262.434 254.728 262.113C253.958 261.434 252.877 260.973 251.485 260.729L245.866 259.72C245.788 259.703 245.718 259.66 245.668 259.597C245.643 259.567 245.624 259.531 245.612 259.493C245.6 259.455 245.597 259.415 245.601 259.376L245.996 255.886C246.002 255.849 246.015 255.812 246.034 255.78C246.054 255.747 246.08 255.719 246.111 255.697C246.143 255.675 246.18 255.66 246.218 255.653C246.258 255.645 246.299 255.645 246.338 255.653L264.161 258.85C264.202 258.858 264.241 258.872 264.277 258.894C264.347 258.937 264.4 259.003 264.426 259.081C264.436 259.119 264.439 259.158 264.435 259.196L264.04 262.684C264.036 262.723 264.024 262.761 264.004 262.795C263.985 262.829 263.958 262.859 263.925 262.881C263.858 262.926 263.777 262.942 263.698 262.927L259.958 262.245Z" fill="#FFF6E1"/>
<path d="M194.122 270.43C207.751 270.944 219.507 259.301 220.377 244.428C221.247 229.554 210.911 217.076 197.28 216.566L193.253 216.416L190.089 270.284L194.118 270.436" fill="white"/>
<path d="M195.189 269.801C181.685 272.221 169.26 262.308 167.433 247.658C165.605 233.008 175.075 219.162 188.576 216.741C202.076 214.321 214.511 224.234 216.332 238.884C218.154 253.534 208.694 267.378 195.189 269.801Z" fill="#FFE2AA"/>
<path d="M179.753 262.436L179.741 262.421C174.961 258.905 171.773 253.285 170.99 247.008C169.433 234.513 177.538 222.669 189.057 220.602C191.657 220.13 194.326 220.197 196.899 220.798C199.472 221.4 201.894 222.523 204.015 224.098L204.029 224.108C208.809 227.625 211.998 233.243 212.781 239.521C214.337 252.013 206.232 263.857 194.713 265.922C192.114 266.396 189.444 266.332 186.871 265.732C184.297 265.132 181.875 264.011 179.753 262.436V262.436ZM203.883 224.272C201.785 222.713 199.39 221.602 196.844 221.006C194.299 220.411 191.659 220.345 189.087 220.812C177.675 222.859 169.647 234.6 171.189 246.986C171.965 253.208 175.123 258.777 179.858 262.258L179.87 262.268C181.968 263.827 184.364 264.938 186.91 265.533C189.455 266.128 192.096 266.193 194.668 265.726V265.726C206.086 263.679 214.114 251.948 212.573 239.554C211.798 233.33 208.637 227.763 203.904 224.282L203.883 224.272Z" fill="#FFF6E1"/>
<path d="M193.971 235.824C194.854 236.401 195.588 237.179 196.113 238.094L198.223 237.44C198.294 237.419 198.371 237.424 198.439 237.454C198.472 237.468 198.501 237.488 198.526 237.513C198.551 237.539 198.57 237.569 198.583 237.602L199.075 238.901C199.088 238.932 199.093 238.966 199.091 238.999C199.089 239.034 199.079 239.067 199.064 239.098C199.046 239.128 199.023 239.155 198.996 239.177C198.968 239.2 198.935 239.217 198.899 239.227L196.91 239.843C197.246 240.881 197.314 241.987 197.108 243.058C196.906 244.074 196.422 245.013 195.711 245.767L203.146 250.551C203.188 250.578 203.222 250.615 203.245 250.66C203.265 250.704 203.272 250.752 203.264 250.8C203.258 250.848 203.236 250.892 203.203 250.927C203.169 250.964 203.125 250.992 203.077 251.008L198.488 252.428C198.445 252.44 198.4 252.444 198.356 252.438C198.311 252.432 198.269 252.417 198.231 252.393L191.789 248.229C191.601 248.308 191.291 248.415 190.862 248.547L185.699 250.148C185.664 250.16 185.628 250.164 185.591 250.162C185.554 250.159 185.518 250.151 185.484 250.136C185.451 250.122 185.42 250.101 185.395 250.075C185.37 250.05 185.351 250.019 185.34 249.986L184.21 247.022C184.198 246.99 184.193 246.956 184.196 246.922C184.198 246.888 184.208 246.854 184.224 246.824C184.259 246.761 184.317 246.713 184.386 246.692L189.283 245.176C190.47 244.806 191.344 244.287 191.904 243.617C192.185 243.29 192.388 242.903 192.497 242.486C192.605 242.068 192.617 241.631 192.531 241.209L183.38 244.038C183.344 244.05 183.308 244.054 183.271 244.052C183.234 244.05 183.198 244.041 183.164 244.026C183.131 244.012 183.1 243.991 183.075 243.965C183.05 243.94 183.031 243.91 183.02 243.876L182.527 242.58C182.515 242.548 182.51 242.514 182.512 242.48C182.514 242.446 182.523 242.413 182.539 242.382C182.574 242.319 182.632 242.272 182.701 242.252L191.849 239.418C191.624 239.032 191.323 238.697 190.963 238.432C190.604 238.168 190.193 237.98 189.758 237.881C188.864 237.658 187.809 237.735 186.593 238.11L181.72 239.616C181.649 239.639 181.572 239.635 181.505 239.604C181.472 239.59 181.442 239.57 181.416 239.545C181.391 239.519 181.371 239.489 181.358 239.456L180.239 236.512C180.227 236.479 180.221 236.445 180.223 236.411C180.225 236.377 180.235 236.344 180.251 236.314C180.267 236.283 180.29 236.255 180.318 236.233C180.347 236.21 180.38 236.194 180.415 236.184L195.929 231.384C195.964 231.372 196.002 231.368 196.039 231.37C196.076 231.372 196.112 231.381 196.146 231.396C196.179 231.411 196.209 231.432 196.235 231.457C196.26 231.483 196.278 231.513 196.291 231.546L197.41 234.488C197.422 234.52 197.428 234.554 197.426 234.588C197.424 234.622 197.414 234.656 197.398 234.686C197.363 234.749 197.305 234.796 197.236 234.818L193.971 235.824Z" fill="#FFF6E1"/>
<path d="M95.5769 384.507C109.224 384.507 120.278 370.537 120.278 353.302C120.278 336.068 109.22 322.095 95.5769 322.095H92.3095V384.507H95.5769Z" fill="white"/>
<path d="M91.658 384.509C105.3 384.509 116.359 370.538 116.359 353.302C116.359 336.067 105.3 322.095 91.658 322.095C78.016 322.095 66.957 336.067 66.957 353.302C66.957 370.538 78.016 384.509 91.658 384.509Z" fill="#FFDFD4"/>
<path d="M113.72 353.22C113.723 356.133 113.362 359.036 112.646 361.859C111.977 364.506 110.965 367.054 109.634 369.437C108.402 371.65 106.858 373.675 105.049 375.448C103.348 377.117 101.378 378.489 99.2224 379.507C97.1061 380.503 94.8134 381.072 92.4764 381.179C90.1393 381.287 87.8041 380.931 85.6051 380.133C83.4027 379.328 81.3584 378.144 79.5649 376.634C77.66 375.025 76.0043 373.144 74.652 371.05C73.2 368.808 72.0521 366.383 71.2383 363.839C70.3598 361.113 69.8283 358.288 69.656 355.429C69.4703 352.47 69.6577 349.498 70.2138 346.585C70.7277 343.871 71.5885 341.233 72.775 338.738C73.877 336.41 75.2989 334.247 76.9996 332.312C78.591 330.498 80.465 328.952 82.5494 327.734C84.5763 326.559 86.8066 325.776 89.1236 325.426C91.4394 325.091 93.7987 325.221 96.0638 325.807C98.3268 326.407 100.462 327.411 102.367 328.771C104.357 330.186 106.116 331.9 107.581 333.854C109.164 335.966 110.452 338.284 111.41 340.744C112.436 343.367 113.125 346.109 113.461 348.905C113.632 350.337 113.718 351.778 113.72 353.22C113.72 353.74 114.529 353.742 114.529 353.22C114.53 350.222 114.157 347.235 113.417 344.328C112.725 341.616 111.682 339.006 110.314 336.565C109.039 334.283 107.44 332.197 105.567 330.372C103.806 328.649 101.767 327.237 99.5349 326.193C97.3316 325.171 94.9529 324.582 92.5275 324.456C90.1001 324.343 87.6742 324.707 85.3876 325.529C83.0819 326.369 80.9402 327.604 79.0585 329.178C77.0943 330.831 75.3884 332.768 73.9973 334.924C72.5051 337.222 71.3239 339.707 70.4847 342.315C69.5788 345.121 69.0312 348.03 68.855 350.974C68.6665 354.006 68.8599 357.051 69.4306 360.036C69.9632 362.831 70.854 365.547 72.0808 368.115C73.223 370.515 74.6963 372.742 76.4577 374.733C78.1071 376.603 80.0488 378.194 82.2072 379.444C84.2967 380.653 86.5955 381.457 88.9832 381.815C91.4077 382.166 93.8776 382.035 96.2517 381.432C98.5935 380.818 100.805 379.786 102.778 378.385C104.853 376.906 106.686 375.115 108.213 373.077C109.84 370.913 111.165 368.538 112.149 366.017C113.208 363.317 113.918 360.493 114.262 357.613C114.44 356.154 114.53 354.685 114.531 353.214C114.529 352.699 113.72 352.699 113.72 353.22Z" fill="#FFF6E1"/>
<path d="M96.6828 349.185C97.1969 350.303 97.4827 351.512 97.5234 352.742L99.6575 353.206C99.7334 353.225 99.7993 353.272 99.8414 353.338C99.8868 353.409 99.907 353.492 99.8987 353.575L99.7425 355.212C99.7383 355.251 99.7276 355.29 99.7109 355.326C99.6934 355.359 99.67 355.389 99.6416 355.413C99.6142 355.436 99.5816 355.452 99.5467 355.461C99.5115 355.468 99.4751 355.468 99.4399 355.461L97.4265 355.022C97.266 356.271 96.8303 357.47 96.1508 358.531C95.5608 359.456 94.7103 360.185 93.7062 360.628L98.0258 369.737C98.0513 369.789 98.0636 369.847 98.0614 369.905C98.0615 369.961 98.0465 370.015 98.0178 370.063C97.9915 370.108 97.9522 370.143 97.9051 370.164C97.8593 370.185 97.808 370.191 97.7588 370.18L93.1148 369.172C93.0701 369.162 93.0285 369.141 92.9942 369.111C92.9573 369.079 92.9277 369.04 92.9072 368.996L89.1731 361.092C88.8525 361.051 88.5344 360.994 88.2198 360.92L82.9964 359.79C82.9592 359.782 82.9241 359.767 82.8935 359.745C82.8607 359.722 82.8331 359.692 82.8124 359.658C82.7662 359.588 82.7459 359.505 82.7551 359.422L83.115 355.668C83.1214 355.591 83.1576 355.521 83.2159 355.47C83.2428 355.448 83.2747 355.431 83.309 355.423C83.3433 355.414 83.3791 355.413 83.4137 355.421L88.3582 356.496C89.5673 356.759 90.5648 356.688 91.3506 356.281C92.1365 355.874 92.6817 355.14 92.9863 354.081L83.7262 352.072C83.6895 352.063 83.6551 352.047 83.6253 352.024C83.593 352.002 83.5654 351.973 83.5442 351.939C83.5209 351.904 83.5042 351.866 83.4948 351.825C83.4878 351.784 83.4878 351.743 83.4948 351.702L83.651 350.066C83.6582 349.99 83.6943 349.919 83.7519 349.868C83.779 349.846 83.8108 349.83 83.8451 349.821C83.8793 349.812 83.9151 349.812 83.9497 349.819L93.2058 351.825C93.1346 350.683 92.7588 349.76 92.0785 349.058C91.3994 348.335 90.4468 347.84 89.2205 347.574L84.276 346.499C84.2005 346.48 84.1352 346.433 84.094 346.367C84.0483 346.297 84.0274 346.215 84.0347 346.132L84.3887 342.413C84.392 342.373 84.4027 342.334 84.4204 342.298C84.4378 342.265 84.4613 342.236 84.4896 342.211C84.5168 342.188 84.5494 342.172 84.5845 342.164C84.619 342.156 84.6549 342.156 84.6894 342.164L100.389 345.573C100.425 345.581 100.46 345.597 100.49 345.618C100.522 345.643 100.55 345.672 100.573 345.705C100.595 345.74 100.611 345.778 100.621 345.818C100.631 345.858 100.634 345.899 100.631 345.94L100.277 349.659C100.27 349.735 100.234 349.806 100.176 349.857C100.149 349.879 100.117 349.895 100.082 349.904C100.048 349.913 100.012 349.913 99.9779 349.906L96.6828 349.185Z" fill="#FFF6E1"/>
<path d="M123.44 327.677L123.426 327.707C123.471 327.723 123.479 327.717 123.44 327.677Z" fill="#1D2544"/>
<path d="M123.44 327.677L123.426 327.707C123.471 327.723 123.479 327.717 123.44 327.677Z" fill="#FCF5E8"/>
<path d="M62.2617 300.083C69.7559 300.083 76.9432 297.109 82.2424 291.814C87.5416 286.52 90.5187 279.339 90.5187 271.852C90.5187 264.365 87.5416 257.184 82.2424 251.89C76.9432 246.595 69.7559 243.621 62.2617 243.621H57.8057V300.083H62.2617Z" fill="white"/>
<path d="M59.1778 300.083C74.7837 300.083 87.4348 287.444 87.4348 271.852C87.4348 256.26 74.7837 243.621 59.1778 243.621C43.5718 243.621 30.9207 256.26 30.9207 271.852C30.9207 287.444 43.5718 300.083 59.1778 300.083Z" fill="#FFBEAA"/>
<path d="M84.3171 271.729C84.3155 274.37 83.9011 276.994 83.0888 279.507C82.3013 281.919 81.1523 284.197 79.6811 286.265C76.7362 290.41 72.6038 293.566 67.828 295.319C62.8435 297.133 57.4139 297.335 52.3081 295.896C49.8475 295.198 47.5083 294.128 45.3719 292.722C43.2721 291.339 41.3903 289.651 39.7886 287.713C38.1682 285.759 36.855 283.569 35.8942 281.22C34.9139 278.813 34.3135 276.269 34.1142 273.678C33.9095 271.019 34.1251 268.345 34.753 265.754C35.3596 263.275 36.3421 260.903 37.6664 258.721C38.9737 256.563 40.597 254.613 42.4823 252.936C44.3745 251.262 46.5081 249.882 48.8113 248.843C51.1762 247.769 53.6948 247.072 56.2756 246.776C58.9221 246.473 61.5998 246.588 64.2106 247.116C66.733 247.626 69.1614 248.523 71.4098 249.774C75.8436 252.247 79.4278 255.998 81.6945 260.537C82.8404 262.841 83.6255 265.307 84.0224 267.848C84.2194 269.129 84.3179 270.422 84.3171 271.717C84.3171 271.786 84.3441 271.851 84.3924 271.899C84.4406 271.947 84.506 271.974 84.5742 271.974C84.6424 271.974 84.7078 271.947 84.756 271.899C84.8042 271.851 84.8313 271.786 84.8313 271.717C84.8309 269.031 84.4105 266.361 83.5853 263.804C82.7841 261.335 81.611 259.003 80.1063 256.888C78.6114 254.788 76.8116 252.924 74.7662 251.355C72.7091 249.787 70.4266 248.539 67.9961 247.654C62.9146 245.804 57.3796 245.596 52.1736 247.061C49.6699 247.77 47.2895 248.858 45.1148 250.286C42.9558 251.701 41.0222 253.433 39.3792 255.423C37.7377 257.415 36.4044 259.642 35.4235 262.029C34.4188 264.488 33.8036 267.088 33.6 269.735C33.39 272.44 33.6083 275.161 34.2467 277.798C34.8628 280.331 35.8633 282.755 37.2134 284.986C38.5517 287.192 40.2138 289.184 42.1441 290.897C46.1192 294.423 51.0923 296.628 56.3763 297.209C61.6602 297.789 66.9942 296.716 71.6412 294.137C76.1724 291.612 79.836 287.78 82.1533 283.143C83.3263 280.788 84.1269 278.265 84.5267 275.665C84.7263 274.363 84.8275 273.047 84.8293 271.729C84.8237 271.665 84.7942 271.606 84.7468 271.562C84.6994 271.519 84.6375 271.495 84.5732 271.495C84.5089 271.495 84.4469 271.519 84.3995 271.562C84.3521 271.606 84.3227 271.665 84.3171 271.729Z" fill="#FFD380"/>
<path d="M65.2422 265.607C65.7982 266.595 66.1133 267.699 66.1618 268.832L68.4996 269.25C68.5781 269.265 68.6484 269.308 68.6974 269.371C68.7465 269.431 68.77 269.507 68.7627 269.584L68.5926 271.064C68.5891 271.101 68.5775 271.136 68.5587 271.168C68.5399 271.199 68.5143 271.226 68.4838 271.246C68.4521 271.268 68.4164 271.282 68.379 271.29C68.341 271.297 68.3022 271.297 68.2643 271.29L66.057 270.895C65.8668 272.049 65.3864 273.137 64.6607 274.056C63.9655 274.928 63.0378 275.585 61.9847 275.953L66.7156 284.193C66.7411 284.24 66.7547 284.292 66.7552 284.345C66.7533 284.397 66.7361 284.447 66.7057 284.489C66.675 284.531 66.6323 284.563 66.5831 284.58C66.5321 284.6 66.4766 284.605 66.4229 284.594L61.338 283.683C61.2912 283.674 61.2469 283.655 61.2074 283.628C61.1678 283.601 61.1347 283.565 61.1105 283.523L57.0224 276.372C56.8035 276.354 56.4554 276.302 55.9781 276.218L50.2582 275.194C50.2191 275.187 50.1816 275.173 50.1475 275.153C50.1135 275.133 50.0833 275.106 50.0585 275.076C50.0338 275.046 50.0156 275.011 50.0051 274.973C49.996 274.939 49.9946 274.903 50.0011 274.868L50.3967 271.473C50.4006 271.437 50.4125 271.402 50.4316 271.37C50.4508 271.339 50.4767 271.312 50.5074 271.292C50.5392 271.27 50.575 271.255 50.6127 271.247C50.6503 271.239 50.6892 271.239 50.727 271.246L56.1501 272.22C57.4687 272.458 58.5604 272.392 59.4254 272.023C59.8539 271.849 60.2369 271.579 60.5454 271.234C60.8538 270.89 61.0796 270.48 61.2054 270.035L51.0691 268.215C51.0304 268.207 50.993 268.193 50.9584 268.174C50.9243 268.153 50.8942 268.126 50.8694 268.095C50.844 268.065 50.8257 268.03 50.816 267.992C50.8038 267.956 50.8004 267.918 50.8061 267.881L50.9782 266.399C50.9823 266.363 50.9942 266.328 51.0129 266.296C51.0317 266.265 51.0569 266.238 51.0869 266.217C51.1518 266.175 51.2304 266.16 51.3065 266.174L61.4408 267.99C61.4176 267.511 61.2961 267.041 61.0838 266.611C60.8715 266.181 60.5729 265.798 60.2066 265.488C59.463 264.829 58.42 264.382 57.0777 264.144L51.6585 263.172C51.5806 263.158 51.5104 263.116 51.4608 263.054C51.4363 263.024 51.418 262.99 51.4068 262.954C51.3956 262.917 51.3917 262.878 51.3955 262.84L51.791 259.481C51.7951 259.445 51.8072 259.41 51.8266 259.378C51.8453 259.347 51.871 259.32 51.9018 259.299C51.9326 259.278 51.9677 259.263 52.0047 259.256C52.0431 259.248 52.0828 259.248 52.1213 259.256L69.3085 262.34C69.3476 262.348 69.3851 262.362 69.4193 262.382C69.4533 262.402 69.4834 262.428 69.5083 262.459C69.5322 262.49 69.5503 262.524 69.5617 262.562C69.5694 262.598 69.5694 262.636 69.5617 262.672L69.1661 266.032C69.1623 266.068 69.1504 266.104 69.1312 266.136C69.1121 266.168 69.0862 266.195 69.0554 266.215C68.9905 266.258 68.9119 266.273 68.8358 266.259L65.2422 265.607Z" fill="#FFE2AA"/>
<path d="M258.487 206.938C271.126 206.938 281.372 196.701 281.372 184.074C281.372 171.446 271.126 161.209 258.487 161.209C245.848 161.209 235.602 171.446 235.602 184.074C235.602 196.701 245.848 206.938 258.487 206.938Z" fill="#FFE2AA"/>
<path d="M278.758 183.973C278.758 188.128 277.48 192.183 275.096 195.587C272.712 198.992 269.338 201.583 265.431 203.007C261.491 204.445 257.202 204.625 253.155 203.524C249.107 202.423 245.502 200.095 242.835 196.86C240.157 193.616 238.556 189.619 238.254 185.425C237.952 181.23 238.964 177.046 241.15 173.452C243.309 169.906 246.506 167.108 250.309 165.437C254.112 163.765 258.337 163.301 262.413 164.107C266.488 164.913 270.218 166.949 273.097 169.942C275.976 172.934 277.866 176.738 278.511 180.839C278.673 181.876 278.756 182.923 278.758 183.973C278.758 184.051 278.789 184.127 278.845 184.182C278.9 184.238 278.976 184.269 279.055 184.269C279.133 184.269 279.209 184.238 279.264 184.182C279.32 184.127 279.351 184.051 279.351 183.973C279.351 180.224 278.34 176.546 276.423 173.323C274.507 170.101 271.757 167.454 268.462 165.662C265.167 163.87 261.449 162.998 257.7 163.139C253.951 163.279 250.309 164.427 247.158 166.461C244.007 168.496 241.463 171.341 239.794 174.698C238.125 178.055 237.393 181.799 237.674 185.537C237.956 189.274 239.24 192.867 241.393 195.937C243.546 199.006 246.487 201.439 249.908 202.98C253.901 204.766 258.353 205.264 262.643 204.405C266.815 203.555 270.627 201.452 273.569 198.376C276.51 195.301 278.44 191.4 279.1 187.197C279.265 186.13 279.349 185.052 279.351 183.973C279.351 183.894 279.32 183.819 279.264 183.763C279.209 183.707 279.133 183.676 279.055 183.676C278.976 183.676 278.9 183.707 278.845 183.763C278.789 183.819 278.758 183.894 278.758 183.973Z" fill="#FFE4AE"/>
<path d="M263.403 179.015C263.854 179.815 264.109 180.709 264.148 181.626L266.041 181.968C266.106 181.978 266.164 182.013 266.203 182.064C266.223 182.088 266.238 182.116 266.247 182.145C266.255 182.175 266.258 182.206 266.255 182.236L266.116 183.436C266.113 183.465 266.102 183.494 266.087 183.519C266.072 183.545 266.052 183.567 266.027 183.584C266.001 183.6 265.973 183.612 265.942 183.618C265.912 183.625 265.88 183.625 265.849 183.618L264.069 183.297C263.916 184.236 263.527 185.12 262.938 185.866C262.373 186.573 261.618 187.106 260.762 187.402L264.59 194.075C264.612 194.111 264.624 194.154 264.623 194.197C264.621 194.239 264.608 194.279 264.584 194.314C264.558 194.348 264.523 194.374 264.483 194.389C264.441 194.403 264.397 194.406 264.354 194.399L260.238 193.656C260.2 193.649 260.164 193.635 260.132 193.612C260.1 193.59 260.073 193.561 260.054 193.527L256.736 187.728C256.558 187.714 256.277 187.672 255.889 187.603L251.257 186.775C251.226 186.769 251.196 186.758 251.168 186.742C251.141 186.724 251.116 186.703 251.095 186.678C251.076 186.653 251.061 186.625 251.051 186.595C251.046 186.565 251.046 186.535 251.051 186.505L251.372 183.756C251.375 183.726 251.384 183.698 251.4 183.673C251.415 183.647 251.436 183.626 251.461 183.61C251.513 183.574 251.577 183.561 251.639 183.572L256.032 184.363C257.101 184.554 257.985 184.501 258.684 184.204C259.032 184.064 259.344 183.846 259.595 183.567C259.847 183.288 260.031 182.955 260.134 182.594L251.924 181.12C251.892 181.115 251.862 181.103 251.835 181.086C251.806 181.07 251.781 181.049 251.761 181.023C251.742 180.998 251.727 180.97 251.718 180.94C251.712 180.911 251.712 180.881 251.718 180.851L251.856 179.652C251.859 179.622 251.869 179.593 251.885 179.567C251.9 179.541 251.922 179.52 251.947 179.504C251.999 179.469 252.062 179.456 252.123 179.468L260.331 180.938C260.313 180.55 260.215 180.169 260.043 179.821C259.871 179.472 259.629 179.162 259.333 178.911C258.731 178.384 257.887 178.022 256.799 177.824L252.41 177.034C252.346 177.021 252.288 176.987 252.246 176.937C252.226 176.913 252.212 176.885 252.203 176.855C252.194 176.825 252.191 176.794 252.195 176.763L252.509 174.038C252.512 174.009 252.521 173.98 252.537 173.955C252.552 173.93 252.573 173.908 252.598 173.892C252.623 173.874 252.651 173.862 252.681 173.856C252.712 173.85 252.745 173.85 252.776 173.856L266.696 176.354C266.727 176.36 266.757 176.371 266.785 176.387C266.813 176.404 266.838 176.425 266.858 176.451C266.877 176.476 266.892 176.504 266.902 176.534C266.908 176.564 266.908 176.595 266.902 176.625L266.587 179.347C266.584 179.377 266.575 179.406 266.56 179.432C266.544 179.457 266.523 179.479 266.498 179.496C266.446 179.53 266.382 179.543 266.32 179.531L263.403 179.015Z" fill="#FFF6E1"/>
<path d="M87.0416 407.065C91.143 407.065 94.4679 403.743 94.4679 399.646C94.4679 395.548 91.143 392.226 87.0416 392.226C82.9402 392.226 79.6153 395.548 79.6153 399.646C79.6153 403.743 82.9402 407.065 87.0416 407.065Z" fill="#08090A"/>
<path d="M88.2095 406.569C92.3109 406.569 95.6358 403.247 95.6358 399.149C95.6358 395.052 92.3109 391.73 88.2095 391.73C84.1081 391.73 80.7832 395.052 80.7832 399.149C80.7832 403.247 84.1081 406.569 88.2095 406.569Z" fill="#161E35"/>
<path d="M176.168 638.96L124.269 548.487C120.135 540.896 110.51 538.398 103.371 543.062C96.6354 547.477 94.7658 556.6 99.188 563.472L154.896 648.281L176.168 638.96Z" fill="#ED88B0"/>
<path d="M141.113 397.707L114.99 437.343L99.2792 431.128L122.342 388.729L141.113 397.707Z" fill="#B96A73"/>
<path d="M137.16 371.896L149.505 369.961L131.111 412.05L111.608 403.956L126.032 379.699C127.167 377.636 128.76 375.86 130.689 374.507C132.618 373.154 134.832 372.261 137.16 371.896V371.896Z" fill="#890246"/>
<path d="M112.293 439.135L115.364 436.98L92.8989 382.628L80.3115 386.546L94.9775 431.917C95.5264 433.612 96.4359 435.167 97.6434 436.477C98.851 437.787 100.328 438.821 101.973 439.506C103.618 440.192 105.392 440.514 107.174 440.45C108.955 440.386 110.702 439.938 112.293 439.135V439.135Z" fill="#B96A73"/>
<path d="M87.3481 372.424L74.3336 384.977L80.5875 388.849C83.7576 390.811 87.8797 390.223 90.3733 387.452L91.9187 385.735C95.2255 382.06 94.2591 376.268 89.9379 373.865L87.3481 372.424Z" fill="#B96A73"/>
<path d="M88.2236 377.495C83.0656 371.787 79.8351 367.892 77.7766 365.347" stroke="#B96A73" stroke-width="4.46106" stroke-miterlimit="10" stroke-linecap="round"/>
<path d="M91.4067 379.791C91.3385 375.577 90.8732 369.982 92.56 367.461" stroke="#B96A73" stroke-width="4.89127" stroke-miterlimit="10" stroke-linecap="round"/>
<path d="M84.2411 378.924C78.3396 373.988 72.8543 368.948 70.6979 366.813" stroke="#B96A73" stroke-width="4.46106" stroke-miterlimit="10" stroke-linecap="round"/>
<path d="M81.5171 381.924C75.3004 377.726 71.2484 374.519 68.8529 372.657" stroke="#B96A73" stroke-width="4.46106" stroke-miterlimit="10" stroke-linecap="round"/>
<path d="M82.9791 386.418C75.9293 383.332 73.2337 382.369 70.0121 380.898" stroke="#B96A73" stroke-width="4.46106" stroke-miterlimit="10" stroke-linecap="round"/>
<path d="M79.0169 379.119C79.6325 378.597 79.1478 377.558 78.8284 377.103L82.4631 380.001L81.36 381.971L77.7122 379.821C77.8906 379.805 78.4013 379.641 79.0169 379.119Z" fill="#B96A73"/>
<path d="M80.3692 371.981L82.2246 374.05C82.2318 374.058 82.2364 374.068 82.2377 374.079C82.2438 374.127 82.1883 374.157 82.1513 374.127L80.1868 372.495L80.3316 373.188L84.6787 377.759L85.5602 376.972L81.734 372.643L80.3692 371.981Z" fill="#B96A73"/>
<path d="M76.8835 375.488L78.8962 377.2C78.9347 377.232 78.9397 377.29 78.9075 377.329C78.877 377.366 78.8236 377.373 78.7843 377.346L76.9388 376.08L76.7847 376.547L81.5832 380.789L82.4647 380.002L78.1871 376.002L76.8835 375.488Z" fill="#B96A73"/>
<path d="M88.4016 372.814L89.5186 368.49L91.0296 371.692L88.674 375.812L85.338 372.554L84.7576 370.277L88.0039 372.944C88.144 373.059 88.3562 372.99 88.4016 372.814Z" fill="#B96A73"/>
<path d="M89.125 370.642L88.0159 374.75C87.7294 374.829 85.9118 375.77 84.9017 378.173C83.708 381.014 84.913 383.719 85.8109 384.993" stroke="#A95C64" stroke-width="0.297404" stroke-linecap="round"/>
<path d="M169.184 348.327L173.308 378.833L155.481 376.659L155.011 356.836L169.184 348.327Z" fill="#B96A73"/>
<path d="M168.476 343.642L169.823 353.533C171.211 362.317 163.438 367.817 156.321 368.603L155.201 368.808L154.522 348.552L168.476 343.642Z" fill="#A95C64"/>
<path d="M201.925 387.954L203.067 386.835C204.04 385.893 205.198 385.163 206.468 384.69C207.738 384.217 209.092 384.011 210.445 384.086C211.798 384.16 213.121 384.514 214.331 385.123C215.54 385.733 216.611 386.586 217.475 387.629L244.344 420.025C246.021 422.003 246.847 424.562 246.643 427.145C246.439 429.728 245.221 432.126 243.255 433.817C241.289 435.507 238.734 436.352 236.147 436.169C233.56 435.985 231.15 434.787 229.443 432.836L201.455 401.544C199.762 399.656 198.865 397.187 198.953 394.654C199.041 392.121 200.106 389.72 201.925 387.954V387.954Z" fill="#B96A73"/>
<path d="M183.852 362.089C186.648 361.159 189.658 361.08 192.499 361.862C195.34 362.644 197.885 364.252 199.81 366.481L221.402 389.944L201.675 404.071L168.742 367.107L183.852 362.089Z" fill="#A20E57"/>
<path d="M166.84 440.049L194.295 390.428L184.592 363.584L144.169 370.914C144.169 370.914 126.391 384.709 125.212 392.997C124.163 400.368 129.123 405.14 129.123 405.14L121.092 434.423L166.84 440.049Z" fill="#A20E57"/>
<path d="M149.505 369.96C144.534 374.434 143.881 379.236 150.087 380.06C157.3 381.015 169.839 375.329 173.806 365.411L149.505 369.96Z" fill="#B96A73"/>
<path d="M123.926 424.671L123.071 555.638L191.804 559.173C191.804 559.173 186.889 499.682 183.456 469.971C179.862 438.88 165.965 428.258 165.965 428.258L123.926 424.671Z" fill="#A20E57"/>
<path d="M135.66 455.792L142.433 570.18C142.644 573.727 144.222 577.054 146.837 579.463C149.451 581.872 152.898 583.175 156.454 583.098L157.383 583.076C160.811 583.003 164.088 581.652 166.569 579.289C169.051 576.925 170.558 573.72 170.795 570.303C172.351 547.768 174.784 496.163 175.337 470.579C175.576 459.26 162.499 438.176 162.499 438.176L135.66 455.792Z" fill="white"/>
<path d="M137.978 440.055L94.2375 545.569C92.921 548.807 92.8879 552.424 94.1451 555.685C95.4022 558.947 97.8552 561.608 101.005 563.127C104.156 564.646 107.767 564.91 111.105 563.865C114.443 562.82 117.257 560.544 118.976 557.5L167.959 469.592L137.978 440.055Z" fill="#ED88B0"/>
<path d="M159.75 425.995C159.75 425.995 175.797 445.058 173.819 469.244C171.841 493.43 160.858 566.007 160.858 566.007L79.7551 554.374C79.7551 554.374 122.156 431.569 123.921 424.805C126.533 414.739 130.202 408.635 130.202 408.635L159.75 425.995Z" fill="#A20E57"/>
<path d="M192.406 393.145L190.746 391.415L160.044 430.597C160.044 430.597 172.732 439.239 177.583 451.998C182.151 464.041 183.286 478.037 183.33 477.202C184.45 456.696 172.881 434.422 172.881 434.422L192.406 393.145Z" fill="#890246"/>
<path d="M161.037 422.576C164.101 422.024 172.154 423.471 174.949 425.969" stroke="#B96A73" stroke-width="5.538" stroke-miterlimit="10" stroke-linecap="round"/>
<path d="M159.3 431.482C160.531 430.81 169.719 427.38 174.406 431.355" stroke="#B96A73" stroke-width="5.538" stroke-miterlimit="10" stroke-linecap="round"/>
<path d="M176.506 435.45C171.683 434.404 166.647 435.023 162.221 437.206" stroke="#B96A73" stroke-width="5.16855" stroke-miterlimit="10" stroke-linecap="round"/>
<path d="M161.333 420.405C160.994 420.264 160.621 420.231 160.262 420.308C159.989 420.368 159.733 420.491 159.517 420.668C159.3 420.845 159.128 421.071 159.015 421.326C158.902 421.582 158.851 421.861 158.866 422.14C158.88 422.419 158.961 422.691 159.101 422.933C159.24 423.175 159.435 423.381 159.67 423.534C159.904 423.687 160.171 423.783 160.449 423.813C160.727 423.844 161.009 423.808 161.27 423.71C161.532 423.611 161.767 423.452 161.956 423.246L161.333 420.405Z" fill="#FED3B2"/>
<path d="M159.52 429.242C159.202 429.17 158.87 429.188 158.561 429.293C158.251 429.397 157.977 429.585 157.767 429.835C157.558 430.084 157.421 430.387 157.372 430.709C157.323 431.032 157.363 431.361 157.489 431.662C157.614 431.963 157.82 432.223 158.084 432.415C158.348 432.607 158.66 432.723 158.985 432.75C159.31 432.776 159.636 432.713 159.928 432.568C160.22 432.422 160.466 432.198 160.639 431.922L159.52 429.242Z" fill="#FED3B2"/>
<path d="M162.311 435.05C161.98 434.942 161.623 434.942 161.293 435.05C160.866 435.185 160.511 435.483 160.305 435.879C160.099 436.275 160.059 436.737 160.193 437.163C160.328 437.588 160.626 437.943 161.023 438.149C161.419 438.355 161.881 438.395 162.308 438.261C162.641 438.158 162.933 437.953 163.143 437.675L162.311 435.05Z" fill="#FED3B2"/>
<path d="M166.815 431.287L173.05 444.139L177.379 444.471C180.738 440.37 180.436 435.896 179.081 430.773L177.588 425.162L166.815 431.287Z" fill="#B96A73"/>
<path d="M246.56 424.808C246.798 426.055 246.777 427.337 246.499 428.576C246.222 429.815 245.693 430.984 244.947 432.01C244.2 433.037 243.25 433.901 242.157 434.547C241.064 435.194 239.849 435.61 238.589 435.77L178.832 446.955C177.644 447.176 176.417 446.998 175.343 446.447C174.268 445.896 173.407 445.005 172.894 443.912L167.479 432.384L235.876 417.381C238.275 416.978 240.737 417.53 242.734 418.918C244.731 420.307 246.104 422.421 246.56 424.808V424.808Z" fill="#B96A73"/>
<path d="M176.916 353.505C178.174 357.54 173.625 358.595 179.551 360.817C178.106 361.797 179.01 364.172 180.741 363.982C177.995 362.938 181.07 361.671 181.76 360.735C181.297 358.781 176.86 359.385 179.051 356.164C181.364 354.072 178.879 350.221 176.916 353.505Z" fill="#1D2544"/>
<path d="M146.65 338.825C148.322 338.542 149.822 341.603 148.106 342.553C147.221 343.064 145.975 342.553 145.12 343.116C147.143 346.196 140.821 347.027 142.381 348.205C144.012 349.44 143.698 351.259 141.635 350.267C143.635 349.615 138.649 347.109 140.866 346.334C145.84 344.582 135.94 341.166 143.068 341.405C143.971 341.122 146.751 339.697 146.65 338.825Z" fill="#1D2544"/>
<path d="M177.493 324.418C178.612 325.507 180.056 324.459 181.269 325.164C182.807 335.577 201.048 332.591 195.581 323.408C202.156 322.617 203.044 316.167 195.954 315.317C193.957 313.028 197.872 308.688 195.043 306.123C191.685 301.671 187.535 307.062 183.848 307.193C180.209 305.519 175.433 302.223 173.32 307.98C172.264 313.416 174.709 319.784 177.493 324.418Z" fill="#161E35"/>
<path d="M172.847 313.098C172.78 313.866 174.235 314.522 174.746 314.895C175.57 315.499 176.378 316.12 177.172 316.759C178.776 318.048 180.273 319.463 181.65 320.991C184.427 324.119 186.584 327.911 187.207 332.042C188.434 330.434 189.252 328.552 189.592 326.558C189.931 324.565 189.781 322.519 189.155 320.596C187.867 316.774 184.456 313.78 180.572 312.736C178.899 312.284 177.167 312.096 175.437 312.177C174.791 312.218 172.921 312.218 172.847 313.098Z" fill="#98044E"/>
<path d="M173.358 355.602C166.014 355.948 164.656 357.54 163.421 348.991C160.327 344.465 154.155 350.11 150.12 348.488C146.583 346.251 144.045 343.018 140.239 340.468C134.268 336.479 143.041 332.605 140.399 330.454C138.466 328.884 133.846 323.556 139.787 319.947C142.369 318.377 144.762 318.407 143.81 314.865C143.545 309.273 150.277 305.917 154.961 308.546C156.554 309.358 158.263 310.712 159.924 310.037C164.354 302.878 171.041 300.85 175.836 309.325C177.844 316.64 181.636 312.356 187.621 316.286C194.242 320.633 186.472 326.207 192.846 331.408C194.227 332.527 195.182 337.142 194.745 338.988C193.092 345.953 187.901 343.835 185.692 348.134C185.52 352.209 184.946 356.903 179.669 356.996C177.482 357.119 175.336 356.448 173.358 355.602Z" fill="#1D2544"/>
<path d="M143.956 345.163L145.012 336.215C145.227 334.129 145.854 332.107 146.858 330.266C147.862 328.425 149.222 326.801 150.859 325.49C152.497 324.179 154.379 323.206 156.396 322.628C158.413 322.05 160.525 321.879 162.609 322.124C164.693 322.369 166.708 323.025 168.535 324.055C170.363 325.085 171.968 326.467 173.256 328.122C174.544 329.777 175.49 331.672 176.039 333.695C176.588 335.719 176.728 337.831 176.453 339.909L175.397 348.884C174.255 355.494 166.511 363.764 157.827 362.742C147.647 362.422 142.956 353.846 143.956 345.163Z" fill="#B96A73"/>
<path d="M155.644 338.802C155.653 338.534 155.582 338.27 155.441 338.043C155.299 337.816 155.093 337.635 154.849 337.525C154.605 337.415 154.334 337.379 154.07 337.422C153.805 337.466 153.56 337.587 153.365 337.77C153.169 337.952 153.032 338.189 152.971 338.45C152.91 338.71 152.928 338.983 153.022 339.234C153.116 339.484 153.283 339.701 153.5 339.857C153.718 340.013 153.977 340.101 154.245 340.11C154.423 340.116 154.6 340.087 154.767 340.025C154.933 339.962 155.086 339.867 155.216 339.746C155.346 339.624 155.451 339.478 155.524 339.316C155.598 339.154 155.638 338.979 155.644 338.802Z" fill="#221B26"/>
<path d="M164.954 339.943C164.964 339.675 164.894 339.409 164.754 339.18C164.613 338.951 164.407 338.77 164.162 338.658C163.918 338.546 163.646 338.509 163.38 338.552C163.115 338.595 162.868 338.715 162.671 338.898C162.474 339.081 162.336 339.319 162.275 339.58C162.213 339.842 162.23 340.115 162.324 340.367C162.419 340.619 162.585 340.837 162.804 340.994C163.022 341.15 163.282 341.239 163.551 341.248C163.91 341.259 164.258 341.128 164.521 340.884C164.784 340.639 164.939 340.301 164.954 339.943V339.943Z" fill="#221B26"/>
<path d="M174.451 349.485L176.254 340.689C179.131 341.279 181.064 343.724 180.564 346.152C180.064 348.579 177.325 350.074 174.451 349.485Z" fill="#9C5D64"/>
<path d="M174.916 347.182L175.774 342.984C177.148 343.267 178.073 344.434 177.834 345.594C177.595 346.753 176.289 347.465 174.916 347.182Z" fill="#814553"/>
<path d="M176.806 349.465C176.814 349.229 176.751 348.996 176.627 348.796C176.502 348.595 176.321 348.436 176.106 348.338C175.89 348.241 175.651 348.209 175.418 348.248C175.185 348.286 174.968 348.393 174.796 348.554C174.623 348.715 174.503 348.924 174.449 349.154C174.395 349.384 174.411 349.625 174.495 349.846C174.578 350.066 174.725 350.258 174.917 350.395C175.109 350.532 175.338 350.61 175.574 350.617C175.89 350.627 176.197 350.512 176.428 350.296C176.659 350.08 176.795 349.781 176.806 349.465Z" fill="white"/>
<path d="M164.088 350.382L151.538 348.096C150.866 351.776 153.128 355.273 156.591 355.903C160.054 356.534 163.416 354.065 164.088 350.382Z" fill="white" stroke="#98044E" stroke-width="0.750093" stroke-miterlimit="10"/>
<path d="M153.178 332.893C154.23 332.147 155.913 332.356 156.91 333.188" stroke="#2B2324" stroke-width="0.80607" stroke-miterlimit="10" stroke-linecap="round"/>
<path d="M164.228 334.537C164.759 334.433 165.31 334.483 165.814 334.681C166.319 334.88 166.756 335.217 167.075 335.655" stroke="#2B2324" stroke-width="0.80607" stroke-miterlimit="10" stroke-linecap="round"/>
<path d="M157.58 322.23C159.27 326.778 166.256 324.094 165.618 328.512C165.652 329.686 165.887 330.503 166.894 331.103C176.399 333.236 170.675 335.022 175.895 340.745C174.246 343.921 175.399 344.525 175.795 347.303C174.627 338.553 187.363 342.807 180.396 329.161C176.097 323.266 169.256 319.094 161.7 319.21C159.457 319.284 157.139 319.657 157.58 322.23Z" fill="#1D2544"/>
<path d="M157.941 336.474C157.985 335.186 157.646 333.914 156.967 332.818C156.287 331.722 155.298 330.853 154.123 330.319C152.949 329.785 151.643 329.611 150.369 329.819C149.096 330.027 147.913 330.607 146.97 331.487C146.027 332.367 145.366 333.506 145.071 334.761C144.776 336.016 144.86 337.33 145.313 338.537C145.765 339.744 146.566 340.79 147.613 341.542C148.661 342.295 149.908 342.72 151.198 342.764C152.054 342.794 152.907 342.654 153.71 342.354C154.512 342.054 155.247 341.599 155.873 341.015C156.499 340.431 157.004 339.729 157.359 338.95C157.714 338.171 157.912 337.33 157.941 336.474V336.474Z" stroke="#D5CCBF" stroke-width="0.335863" stroke-miterlimit="10" stroke-linecap="round"/>
<path d="M174.388 339.745C174.439 338.238 174.042 336.749 173.247 335.467C172.452 334.185 171.294 333.168 169.92 332.544C168.545 331.919 167.017 331.716 165.527 331.96C164.038 332.204 162.654 332.883 161.551 333.913C160.448 334.942 159.675 336.276 159.331 337.744C158.986 339.212 159.085 340.75 159.615 342.162C160.145 343.574 161.082 344.797 162.308 345.677C163.534 346.557 164.994 347.054 166.502 347.105C167.504 347.139 168.502 346.976 169.441 346.625C170.379 346.273 171.239 345.741 171.971 345.057C172.704 344.374 173.294 343.553 173.709 342.641C174.123 341.73 174.354 340.745 174.388 339.745V339.745Z" stroke="#D5CCBF" stroke-width="0.335863" stroke-miterlimit="10" stroke-linecap="round"/>
<path d="M159.248 337.396C159.248 337.396 158.222 337.168 157.979 337.161" stroke="#D5CCBF" stroke-width="0.335863" stroke-miterlimit="10" stroke-linecap="round"/>
<path d="M152.66 323.936C150.276 324.037 151.503 325.614 151.664 326.845C150.44 327.46 151.026 328.817 152.175 329.153C151.63 328.425 152.063 327.721 153.112 327.833C153.705 327.251 152.709 326.405 152.962 325.752C154.433 324.734 157.067 325.432 156.776 322.33C153.47 319.235 155.093 324.526 152.66 323.936Z" fill="#1D2544"/>
<path d="M129.757 561.543L160.843 566.002L164.701 539.829L129.757 561.543Z" fill="#A20E57"/>
<path d="M83.8509 396.915L96.9122 392.914C97.1089 392.854 97.3208 392.867 97.5089 392.95C97.6969 393.034 97.8482 393.183 97.9347 393.369L99.6961 397.187C99.7457 397.294 99.7726 397.409 99.7751 397.527C99.7776 397.644 99.7558 397.761 99.7109 397.87C99.666 397.978 99.5991 398.076 99.5143 398.158C99.4296 398.239 99.3288 398.302 99.2184 398.343L85.9817 403.253C85.8737 403.295 85.7582 403.314 85.6425 403.31C85.5267 403.306 85.413 403.278 85.3083 403.229C85.2036 403.179 85.11 403.109 85.0333 403.022C84.9567 402.935 84.8984 402.834 84.8622 402.724L83.2874 398C83.2511 397.892 83.2369 397.778 83.2457 397.664C83.2546 397.55 83.2862 397.439 83.3388 397.338C83.3914 397.237 83.4638 397.147 83.5518 397.075C83.6398 397.002 83.7415 396.948 83.8509 396.915V396.915Z" fill="#1D2544"/>
<path d="M92.8407 393.933L90.4225 394.679C90.3686 394.695 90.3229 394.73 90.295 394.779C90.2672 394.828 90.2594 394.885 90.2732 394.94L91.8555 400.212L92.0831 400.957C92.0905 400.984 92.1031 401.01 92.1202 401.032C92.1373 401.054 92.1586 401.072 92.1828 401.086C92.2071 401.1 92.2339 401.109 92.2616 401.112C92.2893 401.116 92.3174 401.114 92.3444 401.107L94.8745 400.167C95.132 400.074 95.0201 399.66 94.7626 399.757L92.2324 400.696L92.4936 400.846L90.9114 395.574L90.6837 394.828L90.5344 395.089L92.9527 394.343C93.2139 394.265 93.1019 393.851 92.8407 393.933V393.933Z" fill="#FFF4CC"/>
<path d="M0.873158 376.166C22.1027 376.166 39.3127 359.069 39.3127 337.98C39.3127 316.89 22.1027 299.793 0.873158 299.793C-20.3564 299.793 -37.5664 316.89 -37.5664 337.98C-37.5664 359.069 -20.3564 376.166 0.873158 376.166Z" fill="#FFE2AA"/>
</g>
<path d="M56.3086 47.323V61.783H53.9386V52.443C53.9386 52.0696 53.9586 51.6663 53.9986 51.233L49.6286 59.443C49.4219 59.8363 49.1052 60.033 48.6786 60.033H48.2986C47.8719 60.033 47.5552 59.8363 47.3486 59.443L42.9286 51.203C42.9486 51.423 42.9652 51.6396 42.9786 51.853C42.9919 52.0663 42.9986 52.263 42.9986 52.443V61.783H40.6286V47.323H42.6586C42.7786 47.323 42.8819 47.3263 42.9686 47.333C43.0552 47.3396 43.1319 47.3563 43.1986 47.383C43.2719 47.4096 43.3352 47.453 43.3886 47.513C43.4486 47.573 43.5052 47.653 43.5586 47.753L47.8886 55.783C48.0019 55.9963 48.1052 56.2163 48.1986 56.443C48.2986 56.6696 48.3952 56.903 48.4886 57.143C48.5819 56.8963 48.6786 56.6596 48.7786 56.433C48.8786 56.1996 48.9852 55.9763 49.0986 55.763L53.3686 47.753C53.4219 47.653 53.4786 47.573 53.5386 47.513C53.5986 47.453 53.6619 47.4096 53.7286 47.383C53.8019 47.3563 53.8819 47.3396 53.9686 47.333C54.0552 47.3263 54.1586 47.323 54.2786 47.323H56.3086ZM64.4709 57.403C63.7576 57.4363 63.1576 57.4996 62.6709 57.593C62.1842 57.6796 61.7942 57.793 61.5009 57.933C61.2076 58.073 60.9976 58.2363 60.8709 58.423C60.7442 58.6096 60.6809 58.813 60.6809 59.033C60.6809 59.4663 60.8076 59.7763 61.0609 59.963C61.3209 60.1496 61.6576 60.243 62.0709 60.243C62.5776 60.243 63.0142 60.153 63.3809 59.973C63.7542 59.7863 64.1176 59.5063 64.4709 59.133V57.403ZM58.8109 52.953C59.9909 51.873 61.4109 51.333 63.0709 51.333C63.6709 51.333 64.2076 51.433 64.6809 51.633C65.1542 51.8263 65.5542 52.0996 65.8809 52.453C66.2076 52.7996 66.4542 53.2163 66.6209 53.703C66.7942 54.1896 66.8809 54.723 66.8809 55.303V61.783H65.7609C65.5276 61.783 65.3476 61.7496 65.2209 61.683C65.0942 61.6096 64.9942 61.4663 64.9209 61.253L64.7009 60.513C64.4409 60.7463 64.1876 60.953 63.9409 61.133C63.6942 61.3063 63.4376 61.453 63.1709 61.573C62.9042 61.693 62.6176 61.783 62.3109 61.843C62.0109 61.9096 61.6776 61.943 61.3109 61.943C60.8776 61.943 60.4776 61.8863 60.1109 61.773C59.7442 61.653 59.4276 61.4763 59.1609 61.243C58.8942 61.0096 58.6876 60.7196 58.5409 60.373C58.3942 60.0263 58.3209 59.623 58.3209 59.163C58.3209 58.903 58.3642 58.6463 58.4509 58.393C58.5376 58.133 58.6776 57.8863 58.8709 57.653C59.0709 57.4196 59.3276 57.1996 59.6409 56.993C59.9542 56.7863 60.3376 56.6063 60.7909 56.453C61.2509 56.2996 61.7842 56.1763 62.3909 56.083C62.9976 55.983 63.6909 55.923 64.4709 55.903V55.303C64.4709 54.6163 64.3242 54.1096 64.0309 53.783C63.7376 53.4496 63.3142 53.283 62.7609 53.283C62.3609 53.283 62.0276 53.3296 61.7609 53.423C61.5009 53.5163 61.2709 53.623 61.0709 53.743C60.8709 53.8563 60.6876 53.9596 60.5209 54.053C60.3609 54.1463 60.1809 54.193 59.9809 54.193C59.8076 54.193 59.6609 54.1496 59.5409 54.063C59.4209 53.9696 59.3242 53.863 59.2509 53.743L58.8109 52.953ZM71.8371 46.923V55.433H72.2971C72.4638 55.433 72.5938 55.413 72.6871 55.373C72.7871 55.3263 72.8871 55.2363 72.9871 55.103L75.5371 51.953C75.6438 51.813 75.7605 51.7063 75.8871 51.633C76.0205 51.5596 76.1905 51.523 76.3971 51.523H78.6571L75.4671 55.333C75.2405 55.633 74.9938 55.863 74.7271 56.023C74.8671 56.123 74.9905 56.2396 75.0971 56.373C75.2105 56.5063 75.3171 56.6496 75.4171 56.803L78.8371 61.783H76.6071C76.4138 61.783 76.2471 61.753 76.1071 61.693C75.9671 61.6263 75.8505 61.5096 75.7571 61.343L73.1371 57.453C73.0438 57.2996 72.9471 57.1996 72.8471 57.153C72.7471 57.1063 72.5971 57.083 72.3971 57.083H71.8371V61.783H69.3671V46.923H71.8371ZM86.2934 55.473C86.2934 55.153 86.2467 54.853 86.1534 54.573C86.0667 54.2863 85.9334 54.0363 85.7534 53.823C85.5734 53.6096 85.3434 53.443 85.0634 53.323C84.7901 53.1963 84.4701 53.133 84.1034 53.133C83.3901 53.133 82.8267 53.3363 82.4134 53.743C82.0067 54.1496 81.7467 54.7263 81.6334 55.473H86.2934ZM81.5834 56.963C81.6234 57.4896 81.7167 57.9463 81.8634 58.333C82.0101 58.713 82.2034 59.0296 82.4434 59.283C82.6834 59.5296 82.9667 59.7163 83.2934 59.843C83.6267 59.963 83.9934 60.023 84.3934 60.023C84.7934 60.023 85.1367 59.9763 85.4234 59.883C85.7167 59.7896 85.9701 59.6863 86.1834 59.573C86.4034 59.4596 86.5934 59.3563 86.7534 59.263C86.9201 59.1696 87.0801 59.123 87.2334 59.123C87.4401 59.123 87.5934 59.1996 87.6934 59.353L88.4034 60.253C88.1301 60.573 87.8234 60.843 87.4834 61.063C87.1434 61.2763 86.7867 61.4496 86.4134 61.583C86.0467 61.7096 85.6701 61.7996 85.2834 61.853C84.9034 61.9063 84.5334 61.933 84.1734 61.933C83.4601 61.933 82.7967 61.8163 82.1834 61.583C81.5701 61.343 81.0367 60.993 80.5834 60.533C80.1301 60.0663 79.7734 59.493 79.5134 58.813C79.2534 58.1263 79.1234 57.333 79.1234 56.433C79.1234 55.733 79.2367 55.0763 79.4634 54.463C79.6901 53.843 80.0134 53.3063 80.4334 52.853C80.8601 52.393 81.3767 52.0296 81.9834 51.763C82.5967 51.4963 83.2867 51.363 84.0534 51.363C84.7001 51.363 85.2967 51.4663 85.8434 51.673C86.3901 51.8796 86.8601 52.183 87.2534 52.583C87.6467 52.9763 87.9534 53.463 88.1734 54.043C88.4001 54.6163 88.5134 55.273 88.5134 56.013C88.5134 56.3863 88.4734 56.6396 88.3934 56.773C88.3134 56.8996 88.1601 56.963 87.9334 56.963H81.5834ZM104.362 51.523L98.7725 64.603C98.6991 64.7763 98.6025 64.9063 98.4825 64.993C98.3691 65.0863 98.1925 65.133 97.9525 65.133H96.1125L98.0325 61.013L93.8825 51.523H96.0525C96.2458 51.523 96.3958 51.5696 96.5025 51.663C96.6158 51.7563 96.6991 51.863 96.7525 51.983L98.9325 57.303C99.0058 57.483 99.0658 57.663 99.1125 57.843C99.1658 58.023 99.2158 58.2063 99.2625 58.393C99.3225 58.2063 99.3825 58.023 99.4425 57.843C99.5025 57.6563 99.5691 57.473 99.6425 57.293L101.702 51.983C101.756 51.8496 101.842 51.7396 101.962 51.653C102.089 51.5663 102.229 51.523 102.382 51.523H104.362ZM109.977 51.363C110.737 51.363 111.427 51.4863 112.047 51.733C112.674 51.9796 113.207 52.3296 113.647 52.783C114.094 53.2363 114.437 53.7896 114.677 54.443C114.917 55.0963 115.037 55.8263 115.037 56.633C115.037 57.4463 114.917 58.1796 114.677 58.833C114.437 59.4863 114.094 60.043 113.647 60.503C113.207 60.963 112.674 61.3163 112.047 61.563C111.427 61.8096 110.737 61.933 109.977 61.933C109.21 61.933 108.514 61.8096 107.887 61.563C107.26 61.3163 106.724 60.963 106.277 60.503C105.837 60.043 105.494 59.4863 105.247 58.833C105.007 58.1796 104.887 57.4463 104.887 56.633C104.887 55.8263 105.007 55.0963 105.247 54.443C105.494 53.7896 105.837 53.2363 106.277 52.783C106.724 52.3296 107.26 51.9796 107.887 51.733C108.514 51.4863 109.21 51.363 109.977 51.363ZM109.977 60.033C110.83 60.033 111.46 59.7463 111.867 59.173C112.28 58.5996 112.487 57.7596 112.487 56.653C112.487 55.5463 112.28 54.703 111.867 54.123C111.46 53.543 110.83 53.253 109.977 53.253C109.11 53.253 108.467 53.5463 108.047 54.133C107.634 54.713 107.427 55.553 107.427 56.653C107.427 57.753 107.634 58.593 108.047 59.173C108.467 59.7463 109.11 60.033 109.977 60.033ZM125.921 51.523V61.783H124.411C124.085 61.783 123.878 61.633 123.791 61.333L123.621 60.513C123.201 60.9396 122.738 61.2863 122.231 61.553C121.725 61.813 121.128 61.943 120.441 61.943C119.881 61.943 119.385 61.8496 118.951 61.663C118.525 61.4696 118.165 61.1996 117.871 60.853C117.578 60.5063 117.355 60.0963 117.201 59.623C117.055 59.143 116.981 58.6163 116.981 58.043V51.523H119.451V58.043C119.451 58.6696 119.595 59.1563 119.881 59.503C120.175 59.843 120.611 60.013 121.191 60.013C121.618 60.013 122.018 59.9196 122.391 59.733C122.765 59.5396 123.118 59.2763 123.451 58.943V51.523H125.921ZM130.86 53.303C131.18 52.6896 131.56 52.2096 132 51.863C132.44 51.5096 132.96 51.333 133.56 51.333C134.034 51.333 134.414 51.4363 134.7 51.643L134.54 53.493C134.507 53.613 134.457 53.6996 134.39 53.753C134.33 53.7996 134.247 53.823 134.14 53.823C134.04 53.823 133.89 53.8063 133.69 53.773C133.497 53.7396 133.307 53.723 133.12 53.723C132.847 53.723 132.604 53.763 132.39 53.843C132.177 53.923 131.984 54.0396 131.81 54.193C131.644 54.3396 131.494 54.5196 131.36 54.733C131.234 54.9463 131.114 55.1896 131 55.463V61.783H128.53V51.523H129.98C130.234 51.523 130.41 51.5696 130.51 51.663C130.61 51.7496 130.677 51.9096 130.71 52.143L130.86 53.303ZM140.745 61.783V51.523H142.255C142.575 51.523 142.785 51.673 142.885 51.973L143.045 52.733C143.225 52.533 143.411 52.3496 143.605 52.183C143.805 52.0163 144.015 51.873 144.235 51.753C144.461 51.633 144.701 51.5396 144.955 51.473C145.215 51.3996 145.498 51.363 145.805 51.363C146.451 51.363 146.981 51.5396 147.395 51.893C147.815 52.2396 148.128 52.703 148.335 53.283C148.495 52.943 148.695 52.653 148.935 52.413C149.175 52.1663 149.438 51.9663 149.725 51.813C150.011 51.6596 150.315 51.5463 150.635 51.473C150.961 51.3996 151.288 51.363 151.615 51.363C152.181 51.363 152.685 51.4496 153.125 51.623C153.565 51.7963 153.935 52.0496 154.235 52.383C154.535 52.7163 154.761 53.123 154.915 53.603C155.075 54.083 155.155 54.633 155.155 55.253V61.783H152.685V55.253C152.685 54.5996 152.541 54.1096 152.255 53.783C151.968 53.4496 151.548 53.283 150.995 53.283C150.741 53.283 150.505 53.3263 150.285 53.413C150.071 53.4996 149.881 53.6263 149.715 53.793C149.555 53.953 149.428 54.1563 149.335 54.403C149.241 54.6496 149.195 54.933 149.195 55.253V61.783H146.715V55.253C146.715 54.5663 146.575 54.0663 146.295 53.753C146.021 53.4396 145.618 53.283 145.085 53.283C144.725 53.283 144.388 53.373 144.075 53.553C143.768 53.7263 143.481 53.9663 143.215 54.273V61.783H140.745ZM162.203 51.363C162.963 51.363 163.653 51.4863 164.273 51.733C164.899 51.9796 165.433 52.3296 165.873 52.783C166.319 53.2363 166.663 53.7896 166.903 54.443C167.143 55.0963 167.263 55.8263 167.263 56.633C167.263 57.4463 167.143 58.1796 166.903 58.833C166.663 59.4863 166.319 60.043 165.873 60.503C165.433 60.963 164.899 61.3163 164.273 61.563C163.653 61.8096 162.963 61.933 162.203 61.933C161.436 61.933 160.739 61.8096 160.113 61.563C159.486 61.3163 158.949 60.963 158.503 60.503C158.063 60.043 157.719 59.4863 157.473 58.833C157.233 58.1796 157.113 57.4463 157.113 56.633C157.113 55.8263 157.233 55.0963 157.473 54.443C157.719 53.7896 158.063 53.2363 158.503 52.783C158.949 52.3296 159.486 51.9796 160.113 51.733C160.739 51.4863 161.436 51.363 162.203 51.363ZM162.203 60.033C163.056 60.033 163.686 59.7463 164.093 59.173C164.506 58.5996 164.713 57.7596 164.713 56.653C164.713 55.5463 164.506 54.703 164.093 54.123C163.686 53.543 163.056 53.253 162.203 53.253C161.336 53.253 160.693 53.5463 160.273 54.133C159.859 54.713 159.653 55.553 159.653 56.653C159.653 57.753 159.859 58.593 160.273 59.173C160.693 59.7463 161.336 60.033 162.203 60.033ZM171.617 52.783C171.824 52.5763 172.04 52.3863 172.267 52.213C172.5 52.033 172.744 51.883 172.997 51.763C173.257 51.6363 173.534 51.5396 173.827 51.473C174.12 51.3996 174.44 51.363 174.787 51.363C175.347 51.363 175.844 51.4596 176.277 51.653C176.71 51.8396 177.07 52.1063 177.357 52.453C177.65 52.793 177.87 53.203 178.017 53.683C178.17 54.1563 178.247 54.6796 178.247 55.253V61.783H175.777V55.253C175.777 54.6263 175.634 54.143 175.347 53.803C175.06 53.4563 174.624 53.283 174.037 53.283C173.61 53.283 173.21 53.3796 172.837 53.573C172.464 53.7663 172.11 54.0296 171.777 54.363V61.783H169.307V51.523H170.817C171.137 51.523 171.347 51.673 171.447 51.973L171.617 52.783ZM187.366 55.473C187.366 55.153 187.319 54.853 187.226 54.573C187.139 54.2863 187.006 54.0363 186.826 53.823C186.646 53.6096 186.416 53.443 186.136 53.323C185.863 53.1963 185.543 53.133 185.176 53.133C184.463 53.133 183.899 53.3363 183.486 53.743C183.079 54.1496 182.819 54.7263 182.706 55.473H187.366ZM182.656 56.963C182.696 57.4896 182.789 57.9463 182.936 58.333C183.083 58.713 183.276 59.0296 183.516 59.283C183.756 59.5296 184.039 59.7163 184.366 59.843C184.699 59.963 185.066 60.023 185.466 60.023C185.866 60.023 186.209 59.9763 186.496 59.883C186.789 59.7896 187.043 59.6863 187.256 59.573C187.476 59.4596 187.666 59.3563 187.826 59.263C187.993 59.1696 188.153 59.123 188.306 59.123C188.513 59.123 188.666 59.1996 188.766 59.353L189.476 60.253C189.203 60.573 188.896 60.843 188.556 61.063C188.216 61.2763 187.859 61.4496 187.486 61.583C187.119 61.7096 186.743 61.7996 186.356 61.853C185.976 61.9063 185.606 61.933 185.246 61.933C184.533 61.933 183.869 61.8163 183.256 61.583C182.643 61.343 182.109 60.993 181.656 60.533C181.203 60.0663 180.846 59.493 180.586 58.813C180.326 58.1263 180.196 57.333 180.196 56.433C180.196 55.733 180.309 55.0763 180.536 54.463C180.763 53.843 181.086 53.3063 181.506 52.853C181.933 52.393 182.449 52.0296 183.056 51.763C183.669 51.4963 184.359 51.363 185.126 51.363C185.773 51.363 186.369 51.4663 186.916 51.673C187.463 51.8796 187.933 52.183 188.326 52.583C188.719 52.9763 189.026 53.463 189.246 54.043C189.473 54.6163 189.586 55.273 189.586 56.013C189.586 56.3863 189.546 56.6396 189.466 56.773C189.386 56.8996 189.233 56.963 189.006 56.963H182.656ZM200.627 51.523L195.037 64.603C194.963 64.7763 194.867 64.9063 194.747 64.993C194.633 65.0863 194.457 65.133 194.217 65.133H192.377L194.297 61.013L190.147 51.523H192.317C192.51 51.523 192.66 51.5696 192.767 51.663C192.88 51.7563 192.963 51.863 193.017 51.983L195.197 57.303C195.27 57.483 195.33 57.663 195.377 57.843C195.43 58.023 195.48 58.2063 195.527 58.393C195.587 58.2063 195.647 58.023 195.707 57.843C195.767 57.6563 195.833 57.473 195.907 57.293L197.967 51.983C198.02 51.8496 198.107 51.7396 198.227 51.653C198.353 51.5663 198.493 51.523 198.647 51.523H200.627ZM43.9886 84.403C44.2952 84.403 44.5619 84.363 44.7886 84.283C45.0152 84.1963 45.2019 84.0796 45.3486 83.933C45.5019 83.7863 45.6152 83.6096 45.6886 83.403C45.7686 83.1963 45.8086 82.9696 45.8086 82.723C45.8086 82.2163 45.6552 81.8163 45.3486 81.523C45.0486 81.223 44.5952 81.073 43.9886 81.073C43.3819 81.073 42.9252 81.223 42.6186 81.523C42.3186 81.8163 42.1686 82.2163 42.1686 82.723C42.1686 82.963 42.2052 83.1863 42.2786 83.393C42.3586 83.5996 42.4719 83.7796 42.6186 83.933C42.7719 84.0796 42.9619 84.1963 43.1886 84.283C43.4219 84.363 43.6886 84.403 43.9886 84.403ZM46.7786 90.243C46.7786 90.043 46.7186 89.8796 46.5986 89.753C46.4786 89.6263 46.3152 89.5296 46.1086 89.463C45.9019 89.3896 45.6586 89.3363 45.3786 89.303C45.1052 89.2696 44.8119 89.2463 44.4986 89.233C44.1919 89.213 43.8719 89.1963 43.5386 89.183C43.2119 89.1696 42.8919 89.143 42.5786 89.103C42.3052 89.2563 42.0819 89.4363 41.9086 89.643C41.7419 89.8496 41.6586 90.0896 41.6586 90.363C41.6586 90.543 41.7019 90.7096 41.7886 90.863C41.8819 91.023 42.0252 91.1596 42.2186 91.273C42.4186 91.3863 42.6752 91.473 42.9886 91.533C43.3019 91.5996 43.6852 91.633 44.1386 91.633C44.5986 91.633 44.9952 91.5963 45.3286 91.523C45.6619 91.4563 45.9352 91.3596 46.1486 91.233C46.3686 91.113 46.5286 90.9663 46.6286 90.793C46.7286 90.6263 46.7786 90.443 46.7786 90.243ZM49.2386 79.873V80.793C49.2386 81.0863 49.0619 81.2663 48.7086 81.333L47.7886 81.503C47.9286 81.8563 47.9986 82.243 47.9986 82.663C47.9986 83.1696 47.8952 83.6296 47.6886 84.043C47.4886 84.4496 47.2086 84.7963 46.8486 85.083C46.4886 85.3696 46.0619 85.593 45.5686 85.753C45.0819 85.9063 44.5552 85.983 43.9886 85.983C43.7886 85.983 43.5952 85.973 43.4086 85.953C43.2219 85.933 43.0386 85.9063 42.8586 85.873C42.5386 86.0663 42.3786 86.283 42.3786 86.523C42.3786 86.7296 42.4719 86.883 42.6586 86.983C42.8519 87.0763 43.1052 87.143 43.4186 87.183C43.7319 87.223 44.0886 87.2496 44.4886 87.263C44.8886 87.2696 45.2986 87.2896 45.7186 87.323C46.1386 87.3563 46.5486 87.4163 46.9486 87.503C47.3486 87.583 47.7052 87.713 48.0186 87.893C48.3319 88.073 48.5819 88.3196 48.7686 88.633C48.9619 88.9396 49.0586 89.3363 49.0586 89.823C49.0586 90.2763 48.9452 90.7163 48.7186 91.143C48.4986 91.5696 48.1752 91.9496 47.7486 92.283C47.3286 92.6163 46.8086 92.883 46.1886 93.083C45.5752 93.2896 44.8752 93.393 44.0886 93.393C43.3152 93.393 42.6419 93.3163 42.0686 93.163C41.4952 93.0163 41.0186 92.8163 40.6386 92.563C40.2586 92.3163 39.9752 92.0296 39.7886 91.703C39.6019 91.3763 39.5086 91.0363 39.5086 90.683C39.5086 90.203 39.6519 89.803 39.9386 89.483C40.2319 89.1563 40.6319 88.8963 41.1386 88.703C40.8652 88.563 40.6486 88.3763 40.4886 88.143C40.3286 87.9096 40.2486 87.603 40.2486 87.223C40.2486 87.0696 40.2752 86.913 40.3286 86.753C40.3886 86.5863 40.4719 86.423 40.5786 86.263C40.6919 86.103 40.8319 85.953 40.9986 85.813C41.1652 85.6663 41.3619 85.5363 41.5886 85.423C41.0686 85.143 40.6586 84.7696 40.3586 84.303C40.0652 83.8363 39.9186 83.2896 39.9186 82.663C39.9186 82.1563 40.0186 81.6996 40.2186 81.293C40.4252 80.8796 40.7086 80.5296 41.0686 80.243C41.4352 79.9496 41.8652 79.7263 42.3586 79.573C42.8586 79.4196 43.4019 79.343 43.9886 79.343C44.4286 79.343 44.8419 79.3896 45.2286 79.483C45.6152 79.5696 45.9686 79.6996 46.2886 79.873H49.2386ZM53.295 81.303C53.615 80.6896 53.995 80.2096 54.435 79.863C54.875 79.5096 55.395 79.333 55.995 79.333C56.4683 79.333 56.8483 79.4363 57.135 79.643L56.975 81.493C56.9416 81.613 56.8916 81.6996 56.825 81.753C56.765 81.7996 56.6816 81.823 56.575 81.823C56.475 81.823 56.325 81.8063 56.125 81.773C55.9316 81.7396 55.7416 81.723 55.555 81.723C55.2816 81.723 55.0383 81.763 54.825 81.843C54.6116 81.923 54.4183 82.0396 54.245 82.193C54.0783 82.3396 53.9283 82.5196 53.795 82.733C53.6683 82.9463 53.5483 83.1896 53.435 83.463V89.783H50.965V79.523H52.415C52.6683 79.523 52.845 79.5696 52.945 79.663C53.045 79.7496 53.1116 79.9096 53.145 80.143L53.295 81.303ZM62.8329 79.363C63.5929 79.363 64.2829 79.4863 64.9029 79.733C65.5296 79.9796 66.0629 80.3296 66.5029 80.783C66.9496 81.2363 67.2929 81.7896 67.5329 82.443C67.7729 83.0963 67.8929 83.8263 67.8929 84.633C67.8929 85.4463 67.7729 86.1796 67.5329 86.833C67.2929 87.4863 66.9496 88.043 66.5029 88.503C66.0629 88.963 65.5296 89.3163 64.9029 89.563C64.2829 89.8096 63.5929 89.933 62.8329 89.933C62.0663 89.933 61.3696 89.8096 60.7429 89.563C60.1163 89.3163 59.5796 88.963 59.1329 88.503C58.6929 88.043 58.3496 87.4863 58.1029 86.833C57.8629 86.1796 57.7429 85.4463 57.7429 84.633C57.7429 83.8263 57.8629 83.0963 58.1029 82.443C58.3496 81.7896 58.6929 81.2363 59.1329 80.783C59.5796 80.3296 60.1163 79.9796 60.7429 79.733C61.3696 79.4863 62.0663 79.363 62.8329 79.363ZM62.8329 88.033C63.6863 88.033 64.3163 87.7463 64.7229 87.173C65.1363 86.5996 65.3429 85.7596 65.3429 84.653C65.3429 83.5463 65.1363 82.703 64.7229 82.123C64.3163 81.543 63.6863 81.253 62.8329 81.253C61.9663 81.253 61.3229 81.5463 60.9029 82.133C60.4896 82.713 60.2829 83.553 60.2829 84.653C60.2829 85.753 60.4896 86.593 60.9029 87.173C61.3229 87.7463 61.9663 88.033 62.8329 88.033ZM84.4115 79.523L81.1515 89.783H79.1715C78.9449 89.783 78.7882 89.6363 78.7015 89.343L76.8615 83.413C76.8015 83.213 76.7449 83.0163 76.6915 82.823C76.6449 82.623 76.6049 82.423 76.5715 82.223C76.5315 82.423 76.4849 82.6263 76.4315 82.833C76.3849 83.033 76.3315 83.233 76.2715 83.433L74.4015 89.343C74.3215 89.6363 74.1449 89.783 73.8715 89.783H71.9715L68.7215 79.523H70.6915C70.8715 79.523 71.0249 79.5663 71.1515 79.653C71.2782 79.7396 71.3615 79.8496 71.4015 79.983L72.8715 85.463C72.9449 85.763 73.0082 86.0563 73.0615 86.343C73.1215 86.6296 73.1715 86.9163 73.2115 87.203C73.2849 86.9163 73.3615 86.6296 73.4415 86.343C73.5282 86.0563 73.6182 85.763 73.7115 85.463L75.4115 79.963C75.4515 79.8296 75.5282 79.7196 75.6415 79.633C75.7615 79.5463 75.9049 79.503 76.0715 79.503H77.1615C77.3349 79.503 77.4815 79.5463 77.6015 79.633C77.7282 79.7196 77.8115 79.8296 77.8515 79.963L79.5015 85.463C79.5882 85.763 79.6682 86.0596 79.7415 86.353C79.8215 86.6396 79.8982 86.9263 79.9715 87.213C80.0582 86.6463 80.1815 86.063 80.3415 85.463L81.8515 79.983C81.8982 79.8496 81.9815 79.7396 82.1015 79.653C82.2215 79.5663 82.3649 79.523 82.5315 79.523H84.4115Z" fill="#575757"/>
</g>
<path d="M0 0H318H0ZM318 550H0H318ZM0 550V0V550ZM319 0V550H317V0H319Z" fill="#E2E2E2" mask="url(#path-1-inside-1_1107_21016)"/>
<defs>
<clipPath id="clip0_1107_21016">
<path d="M0 7.99999C0 3.58171 3.58172 0 8 0H318V550H7.99999C3.58172 550 0 546.418 0 542V7.99999Z" fill="white"/>
</clipPath>
</defs>
</svg>
