<svg width="20" height="20" viewBox="0 0 20 20" fill="none" xmlns="http://www.w3.org/2000/svg">
<path d="M15.3033 14.47L10 19.7733L4.69667 14.47C3.64779 13.4211 2.93349 12.0847 2.64411 10.6299C2.35473 9.17502 2.50326 7.66703 3.07092 6.29658C3.63858 4.92614 4.59987 3.75481 5.83324 2.9307C7.0666 2.1066 8.51665 1.66673 10 1.66673C11.4834 1.66673 12.9334 2.1066 14.1668 2.9307C15.4001 3.75481 16.3614 4.92614 16.9291 6.29658C17.4968 7.66703 17.6453 9.17502 17.3559 10.6299C17.0665 12.0847 16.3522 13.4211 15.3033 14.47ZM10 10.8333C10.442 10.8333 10.866 10.6577 11.1785 10.3452C11.4911 10.0326 11.6667 9.60869 11.6667 9.16667C11.6667 8.72464 11.4911 8.30072 11.1785 7.98816C10.866 7.67559 10.442 7.5 10 7.5C9.55798 7.5 9.13405 7.67559 8.82149 7.98816C8.50893 8.30072 8.33334 8.72464 8.33334 9.16667C8.33334 9.60869 8.50893 10.0326 8.82149 10.3452C9.13405 10.6577 9.55798 10.8333 10 10.8333Z" fill="#404040"/>
</svg>
