<svg width="13" height="14" viewBox="0 0 13 14" fill="none" xmlns="http://www.w3.org/2000/svg">
<path d="M0.406001 0.20932L7.19467 6.99999L0.406668 13.7907C0.285961 13.7399 0.182953 13.6546 0.110595 13.5455C0.0382368 13.4363 -0.000240512 13.3083 1.13121e-06 13.1773V0.822653C5.22306e-05 0.691867 0.038571 0.563985 0.110762 0.454928C0.182953 0.345872 0.285627 0.260457 0.406001 0.20932ZM7.666 7.47132L9.20067 9.00599L1.90933 13.228L7.666 7.47132ZM9.79867 5.33932L11.67 6.42332C11.771 6.48192 11.8549 6.56604 11.9132 6.66724C11.9715 6.76845 12.0022 6.88319 12.0022 6.99999C12.0022 7.11678 11.9715 7.23152 11.9132 7.33273C11.8549 7.43393 11.771 7.51805 11.67 7.57665L9.798 8.66065L8.13733 6.99999L9.79867 5.33932ZM1.90933 0.771987L9.20133 4.99332L7.666 6.52865L1.90933 0.771987Z" fill="#ED1164"/>
</svg>
