<svg width="20" height="21" viewBox="0 0 20 21" fill="none" xmlns="http://www.w3.org/2000/svg">
<path d="M15.0262 14.3475L18.0057 17.3263C18.3313 17.6519 18.3313 18.1798 18.0057 18.5054C17.6801 18.831 17.1522 18.831 16.8266 18.5053L13.8478 15.5258C12.5201 16.5902 10.8687 17.1691 9.16699 17.1667C5.02699 17.1667 1.66699 13.8067 1.66699 9.66667C1.66699 5.52667 5.02699 2.16667 9.16699 2.16667C13.307 2.16667 16.667 5.52667 16.667 9.66667C16.6694 11.3683 16.0905 13.0198 15.0262 14.3475ZM13.3545 13.7292C14.4121 12.6416 15.0027 11.1837 15.0003 9.66667C15.0003 6.44333 12.3895 3.83333 9.16699 3.83333C5.94366 3.83333 3.33366 6.44333 3.33366 9.66667C3.33366 12.8892 5.94366 15.5 9.16699 15.5C10.684 15.5024 12.1419 14.9118 13.2295 13.8542L13.3545 13.7292Z" fill="#404040"/>
</svg>
